<?xml version="1.0" encoding="UTF-8"?>
<svg version="1.1" xmlns="http://www.w3.org/2000/svg" width="1986" height="882">
<path d="M0 0 C0.68249958 -0.00235223 1.36499915 -0.00470446 2.06818053 -0.00712797 C4.34792619 -0.01376815 6.62761419 -0.01336126 8.90736866 -0.01294994 C10.56145161 -0.0162517 12.21553377 -0.01997792 13.8696149 -0.02409142 C18.41002265 -0.03408449 22.95041717 -0.03782388 27.49083436 -0.04048073 C32.39025914 -0.0443919 37.28967355 -0.05396979 42.18909168 -0.0626936 C54.02026324 -0.08243704 65.85143563 -0.0925224 77.68261954 -0.10142139 C83.26023029 -0.10580853 88.83784009 -0.11117431 94.4154501 -0.11641026 C112.96810903 -0.13342186 131.52076739 -0.14791405 150.07343292 -0.155159 C154.8857387 -0.15706876 159.69804447 -0.15898911 164.51035023 -0.16094494 C166.30436978 -0.16167055 166.30436978 -0.16167055 168.13463215 -0.16241082 C187.49118547 -0.17070371 206.84767685 -0.19602842 226.20420315 -0.22852562 C246.09726087 -0.26164998 265.99028717 -0.27961269 285.8833726 -0.28280324 C297.04433078 -0.28496356 308.20519866 -0.29364189 319.36612988 -0.31926441 C328.87535721 -0.34104512 338.38447233 -0.3489858 347.89372178 -0.33929763 C352.73874841 -0.33477396 357.58354388 -0.33652554 362.42853832 -0.35605907 C400.22358414 -0.49986084 400.22358414 -0.49986084 415.90073109 4.13422108 C416.69174603 4.36271067 417.48276097 4.59120026 418.29774606 4.82661378 C455.22612722 15.62397321 485.27540616 40.3804256 504.13657093 73.81952381 C517.08558253 97.66965785 521.05663928 123.58006849 521.04599476 150.43158436 C521.05103268 152.30303875 521.05103268 152.30303875 521.05617237 154.2123003 C521.06396738 157.59082449 521.06734538 160.96928716 521.06798816 164.34781599 C521.06870565 166.47173822 521.07085299 168.59565426 521.07348537 170.71957493 C521.08270002 178.16671366 521.08682526 185.61383465 521.08603382 193.06097889 C521.08543444 199.94210896 521.09596883 206.82316029 521.11177748 213.70427048 C521.12496516 219.66235688 521.13021305 225.62041791 521.12957841 231.57851875 C521.12932665 235.1146634 521.1319956 238.65073794 521.14275646 242.18686771 C521.28125429 291.17445481 511.66335212 331.90943141 476.40854359 367.66156483 C453.30846175 389.20901821 420.84684738 405.22110216 388.80146217 405.26844215 C387.77771281 405.2719705 387.77771281 405.2719705 386.73328164 405.27557012 C384.45353599 405.2822103 382.17384798 405.28180342 379.89409351 405.2813921 C378.24001056 405.28469385 376.58592841 405.28842007 374.93184727 405.29253358 C370.39143953 405.30252664 365.851045 405.30626604 361.31062782 405.30892289 C356.41120303 405.31283406 351.51178863 405.32241195 346.61237049 405.33113575 C334.78119893 405.35087919 322.95002654 405.36096455 311.11884263 405.36986354 C305.54123188 405.37425068 299.96362208 405.37961646 294.38601208 405.38485241 C275.83335314 405.40186402 257.28069479 405.41635621 238.72802925 405.42360115 C233.91572347 405.42551091 229.1034177 405.42743126 224.29111195 405.42938709 C223.09509891 405.42987083 221.89908588 405.43035457 220.66683003 405.43085297 C201.3102767 405.43914586 181.95378532 405.46447058 162.59725902 405.49696777 C142.7042013 405.53009214 122.811175 405.54805484 102.91808957 405.55124539 C91.7571314 405.55340571 80.59626351 405.56208405 69.4353323 405.58770657 C59.92610496 405.60948727 50.41698984 405.61742796 40.90774039 405.60773978 C36.06271376 405.60321612 31.2179183 405.60496769 26.37292385 405.62450123 C-11.42212197 405.76830299 -11.42212197 405.76830299 -27.09926891 401.13422108 C-28.28579133 400.79148669 -28.28579133 400.79148669 -29.49628389 400.44182837 C-66.42466504 389.64446894 -96.47394399 364.88801656 -115.33510876 331.44891834 C-128.23799356 307.68374293 -132.25510881 281.71352726 -132.24453259 254.95038319 C-132.2478912 253.70289295 -132.25124981 252.45540272 -132.2547102 251.17010975 C-132.26251355 247.78739427 -132.26588375 244.40474024 -132.26652598 241.0220201 C-132.26724294 238.89592564 -132.26938933 236.76983737 -132.2720232 234.64374447 C-132.2812425 227.19012648 -132.28536259 219.73652622 -132.28457165 212.28290272 C-132.28397252 205.39440904 -132.29450072 198.50599408 -132.31031531 191.61752027 C-132.32350343 185.65520778 -132.32875084 179.69292066 -132.32811624 173.73059374 C-132.32786444 170.19108076 -132.33053546 166.65163782 -132.34129429 163.1121397 C-132.47966311 114.11191639 -122.87223984 73.36950664 -87.60708141 37.60687733 C-64.50699958 16.05942395 -32.04538521 0.04733999 0 0 Z " fill="#FDFDFD" transform="translate(132.09926891326904,-0.13422107696533203)"/>
<path d="M0 0 C2.95676898 0.01609192 5.91216806 0.00002481 8.86889648 -0.01904297 C26.71567829 -0.03941853 44.53628334 1.67010963 61.89819336 5.95361328 C63.42464478 6.32715942 63.42464478 6.32715942 64.98193359 6.70825195 C87.26970772 12.46935718 108.38051241 22.175659 126.52319336 36.39111328 C127.38944336 37.05369141 128.25569336 37.71626953 129.14819336 38.39892578 C157.78383987 60.95782172 179.04438463 94.20459623 185.52319336 130.39111328 C185.54215205 132.39102342 185.54439724 134.39122569 185.52319336 136.39111328 C172.34548649 136.66929232 159.16847897 136.88243884 145.98843288 137.01285934 C139.86802333 137.07546055 133.74962367 137.16034205 127.63037109 137.29638672 C121.72334674 137.42688944 115.81825347 137.49854454 109.90989876 137.5296402 C107.65738574 137.55179461 105.40497728 137.59506216 103.15328789 137.65987396 C85.45336814 138.14902463 85.45336814 138.14902463 80.62950134 133.75567627 C78.81269977 130.66505753 77.63113402 127.78898355 76.52319336 124.39111328 C65.03238331 105.82483581 44.59476318 96.6539067 24.25366211 91.57470703 C-1.16074492 86.8115875 -30.00659944 91.00755196 -51.77709961 105.22705078 C-74.96109316 121.10485619 -88.14788431 145.57386181 -93.28930664 172.82861328 C-93.72377877 175.3460672 -94.10651846 177.86265294 -94.47680664 180.39111328 C-94.60829102 181.27154297 -94.73977539 182.15197266 -94.87524414 183.05908203 C-98.63982874 215.05805113 -94.45380511 252.48411535 -74.85180664 279.01611328 C-73.40687442 280.81860501 -71.95025432 282.61185571 -70.47680664 284.39111328 C-69.99985352 285.03048828 -69.52290039 285.66986328 -69.03149414 286.32861328 C-54.94755502 304.54496567 -29.07782814 314.04430565 -7.03540039 316.88330078 C23.3704076 320.06497712 53.27585494 315.99415836 77.72363281 296.41357422 C83.80282197 291.34034507 88.99370845 285.91861509 93.52319336 279.39111328 C94.17674805 278.45138672 94.83030273 277.51166016 95.50366211 276.54345703 C101.67602116 267.09986707 104.98694207 258.16471009 109.52319336 247.39111328 C69.59319336 247.39111328 29.66319336 247.39111328 -11.47680664 247.39111328 C-11.47680664 224.29111328 -11.47680664 201.19111328 -11.47680664 177.39111328 C55.18319336 177.39111328 121.84319336 177.39111328 190.52319336 177.39111328 C190.52319336 281.1434122 190.52319336 281.1434122 177.77319336 305.01611328 C177.36254639 305.78842285 176.95189941 306.56073242 176.52880859 307.35644531 C153.71046303 349.17231088 113.69615227 381.9461575 68.04858398 395.66943359 C13.39234557 411.28852106 -49.01211796 407.77101174 -99.47680664 380.39111328 C-119.75008734 369.06287974 -138.37907964 353.89437998 -152.47680664 335.39111328 C-153.17805664 334.52873047 -153.87930664 333.66634766 -154.60180664 332.77783203 C-183.68726881 296.05743605 -194.98379251 248.87236339 -194.78930664 202.82861328 C-194.78715149 201.90702423 -194.78499634 200.98543518 -194.78277588 200.03591919 C-194.56757527 142.5555883 -175.63500676 90.10064978 -134.66357422 49.20678711 C-112.86924951 28.02833876 -84.06116465 13.76994956 -54.85180664 6.20361328 C-53.50505859 5.84662354 -53.50505859 5.84662354 -52.13110352 5.48242188 C-34.97357939 1.24060155 -17.62252504 -0.11340293 0 0 Z " fill="#801711" transform="translate(1389.476806640625,-0.39111328125)"/>
<path d="M0 0 C31.68 0 63.36 0 96 0 C96.01981934 7.12070068 96.03963867 14.24140137 96.06005859 21.57788086 C96.12499897 44.41570659 96.19954014 67.25349431 96.28005161 90.09126973 C96.29256903 93.6444237 96.30500203 97.19757797 96.31738281 100.75073242 C96.31984881 101.45803946 96.3223148 102.1653465 96.32485552 102.89408708 C96.36447457 114.31540857 96.39726968 125.73673982 96.42749982 137.15808957 C96.4587204 148.89563958 96.49737425 160.63314852 96.54279006 172.37065226 C96.56795249 178.95575255 96.58976368 185.54082419 96.60334396 192.1259594 C96.61625785 198.33523277 96.63841113 204.54440732 96.66738319 210.75362587 C96.67638655 213.02179261 96.68213207 215.28997522 96.68421364 217.55815887 C96.71313894 244.31021991 97.97191026 272.30487559 117.55078125 292.78125 C131.24131228 305.18351734 148.9329054 309.3792477 166.984375 309.15234375 C184.29853671 308.2776646 202.00257642 303.47460018 214.12890625 290.33984375 C227.65046589 273.43083702 232.13550052 252.99172508 232.15821838 231.73045349 C232.16315636 230.734544 232.16809434 229.7386345 232.17318195 228.71254593 C232.18846397 225.39617478 232.19689222 222.07982284 232.20532227 218.76342773 C232.21490811 216.37789239 232.2249186 213.99235871 232.23532104 211.60682678 C232.25950236 205.81478907 232.27927247 200.02274853 232.29707379 194.23068797 C232.31803874 187.48729303 232.34447904 180.74392285 232.37124526 174.00054885 C232.41882873 161.97620831 232.46211775 149.95185634 232.50268555 137.92749023 C232.54208766 126.25137443 232.58352507 114.57526875 232.62768555 102.89916992 C232.63177196 101.81843729 232.63177196 101.81843729 232.63594092 100.71587168 C232.64962117 97.10116202 232.66334129 93.48645252 232.67708123 89.87174308 C232.79090065 59.91451541 232.89694703 29.9572672 233 0 C265.01 0 297.02 0 330 0 C330.04419753 30.5993092 330.0810846 61.19858872 330.10213066 91.79791976 C330.10463169 95.42102534 330.10722037 99.04413085 330.10986328 102.66723633 C330.11065021 103.74905263 330.11065021 103.74905263 330.11145304 104.85272381 C330.12012513 116.48799497 330.13587724 128.1232461 330.15430559 139.75850543 C330.17309404 151.72204687 330.1841355 163.68557792 330.18817699 175.6491335 C330.19066067 182.3584629 330.19682281 189.06774433 330.21146011 195.77705956 C330.22515798 202.10778565 330.22919827 208.43844842 330.22621536 214.76918793 C330.22676012 217.07761544 330.23066414 219.38604534 330.23841095 221.69445992 C330.29736498 240.18790052 329.56375769 258.53388974 325.75 276.6875 C325.53384033 277.73220459 325.31768066 278.77690918 325.0949707 279.85327148 C321.78506943 295.25109742 316.62285834 309.22900522 309 323 C308.6400293 323.65129883 308.28005859 324.30259766 307.90917969 324.97363281 C303.02993099 333.68380356 297.60912173 341.48126047 291 349 C290.28070312 349.85207031 289.56140625 350.70414062 288.8203125 351.58203125 C283.42882857 357.82732669 277.52645039 362.97187554 271 368 C270.22914063 368.63292969 269.45828125 369.26585937 268.6640625 369.91796875 C238.89019998 393.28418772 199.8915625 401.4669296 162.875 401.3125 C161.96925232 401.31067719 161.06350464 401.30885437 160.13031006 401.30697632 C146.88921961 401.2620878 133.96995664 400.90829308 121 398 C120.22221191 397.83371094 119.44442383 397.66742188 118.64306641 397.49609375 C82.87044693 389.65153963 49.67625304 370.36396895 29.1640625 339.4140625 C6.02357106 303.25060526 -0.18267 264.41242498 -0.11352539 222.05566406 C-0.11324301 219.63027955 -0.11340225 217.20489496 -0.1139679 214.7795105 C-0.11419479 209.57734951 -0.11137912 204.37519984 -0.10573006 199.1730423 C-0.09756803 191.65179746 -0.09499504 184.13055867 -0.09374207 176.60930988 C-0.0915589 164.40359897 -0.08491884 152.19789477 -0.07543945 139.9921875 C-0.06624625 128.14257846 -0.05917477 116.29297126 -0.05493164 104.44335938 C-0.05466892 103.71171114 -0.05440619 102.98006291 -0.05413551 102.22624353 C-0.05283038 98.55540962 -0.05156669 94.8845757 -0.05032361 91.21374178 C-0.03997392 60.80915531 -0.02154802 30.40458119 0 0 Z " fill="#801711" transform="translate(1631,3)"/>
<path d="M0 0 C0.68249958 -0.00235223 1.36499915 -0.00470446 2.06818053 -0.00712797 C4.34792619 -0.01376815 6.62761419 -0.01336126 8.90736866 -0.01294994 C10.56145161 -0.0162517 12.21553377 -0.01997792 13.8696149 -0.02409142 C18.41002265 -0.03408449 22.95041717 -0.03782388 27.49083436 -0.04048073 C32.39025914 -0.0443919 37.28967355 -0.05396979 42.18909168 -0.0626936 C54.02026324 -0.08243704 65.85143563 -0.0925224 77.68261954 -0.10142139 C83.26023029 -0.10580853 88.83784009 -0.11117431 94.4154501 -0.11641026 C112.96810903 -0.13342186 131.52076739 -0.14791405 150.07343292 -0.155159 C154.8857387 -0.15706876 159.69804447 -0.15898911 164.51035023 -0.16094494 C166.30436978 -0.16167055 166.30436978 -0.16167055 168.13463215 -0.16241082 C187.49118547 -0.17070371 206.84767685 -0.19602842 226.20420315 -0.22852562 C246.09726087 -0.26164998 265.99028717 -0.27961269 285.8833726 -0.28280324 C297.04433078 -0.28496356 308.20519866 -0.29364189 319.36612988 -0.31926441 C328.87535721 -0.34104512 338.38447233 -0.3489858 347.89372178 -0.33929763 C352.73874841 -0.33477396 357.58354388 -0.33652554 362.42853832 -0.35605907 C400.22358414 -0.49986084 400.22358414 -0.49986084 415.90073109 4.13422108 C416.69174603 4.36271067 417.48276097 4.59120026 418.29774606 4.82661378 C455.22612722 15.62397321 485.27540616 40.3804256 504.13657093 73.81952381 C517.08558253 97.66965785 521.05663928 123.58006849 521.04599476 150.43158436 C521.05103268 152.30303875 521.05103268 152.30303875 521.05617237 154.2123003 C521.06396738 157.59082449 521.06734538 160.96928716 521.06798816 164.34781599 C521.06870565 166.47173822 521.07085299 168.59565426 521.07348537 170.71957493 C521.08270002 178.16671366 521.08682526 185.61383465 521.08603382 193.06097889 C521.08543444 199.94210896 521.09596883 206.82316029 521.11177748 213.70427048 C521.12496516 219.66235688 521.13021305 225.62041791 521.12957841 231.57851875 C521.12932665 235.1146634 521.1319956 238.65073794 521.14275646 242.18686771 C521.28125429 291.17445481 511.66335212 331.90943141 476.40854359 367.66156483 C453.30846175 389.20901821 420.84684738 405.22110216 388.80146217 405.26844215 C387.77771281 405.2719705 387.77771281 405.2719705 386.73328164 405.27557012 C384.45353599 405.2822103 382.17384798 405.28180342 379.89409351 405.2813921 C378.24001056 405.28469385 376.58592841 405.28842007 374.93184727 405.29253358 C370.39143953 405.30252664 365.851045 405.30626604 361.31062782 405.30892289 C356.41120303 405.31283406 351.51178863 405.32241195 346.61237049 405.33113575 C334.78119893 405.35087919 322.95002654 405.36096455 311.11884263 405.36986354 C305.54123188 405.37425068 299.96362208 405.37961646 294.38601208 405.38485241 C275.83335314 405.40186402 257.28069479 405.41635621 238.72802925 405.42360115 C233.91572347 405.42551091 229.1034177 405.42743126 224.29111195 405.42938709 C223.09509891 405.42987083 221.89908588 405.43035457 220.66683003 405.43085297 C201.3102767 405.43914586 181.95378532 405.46447058 162.59725902 405.49696777 C142.7042013 405.53009214 122.811175 405.54805484 102.91808957 405.55124539 C91.7571314 405.55340571 80.59626351 405.56208405 69.4353323 405.58770657 C59.92610496 405.60948727 50.41698984 405.61742796 40.90774039 405.60773978 C36.06271376 405.60321612 31.2179183 405.60496769 26.37292385 405.62450123 C-11.42212197 405.76830299 -11.42212197 405.76830299 -27.09926891 401.13422108 C-28.28579133 400.79148669 -28.28579133 400.79148669 -29.49628389 400.44182837 C-66.42466504 389.64446894 -96.47394399 364.88801656 -115.33510876 331.44891834 C-128.23799356 307.68374293 -132.25510881 281.71352726 -132.24453259 254.95038319 C-132.2478912 253.70289295 -132.25124981 252.45540272 -132.2547102 251.17010975 C-132.26251355 247.78739427 -132.26588375 244.40474024 -132.26652598 241.0220201 C-132.26724294 238.89592564 -132.26938933 236.76983737 -132.2720232 234.64374447 C-132.2812425 227.19012648 -132.28536259 219.73652622 -132.28457165 212.28290272 C-132.28397252 205.39440904 -132.29450072 198.50599408 -132.31031531 191.61752027 C-132.32350343 185.65520778 -132.32875084 179.69292066 -132.32811624 173.73059374 C-132.32786444 170.19108076 -132.33053546 166.65163782 -132.34129429 163.1121397 C-132.47966311 114.11191639 -122.87223984 73.36950664 -87.60708141 37.60687733 C-64.50699958 16.05942395 -32.04538521 0.04733999 0 0 Z M-56.09926891 70.13422108 C-56.80309704 70.75683826 -57.50692516 71.37945545 -58.23208141 72.02093983 C-74.74198524 87.46255576 -85.94191605 111.83373496 -87.28923512 134.30217457 C-87.36446887 137.81651607 -87.38100514 141.32610881 -87.37392712 144.84125233 C-87.37828581 146.18149057 -87.38347277 147.52172634 -87.38941479 148.8619585 C-87.40269934 152.47200041 -87.40339477 156.08193693 -87.40085149 159.69199848 C-87.39977344 162.72535365 -87.40468685 165.75868822 -87.40945691 168.79203892 C-87.42051814 175.96389558 -87.42101023 183.13569987 -87.41494274 190.30756092 C-87.40892107 197.65504904 -87.42117563 205.00234479 -87.44251281 212.34980011 C-87.46025987 218.69932315 -87.4661093 225.04878573 -87.46287507 231.3983326 C-87.46108097 235.1720532 -87.46350607 238.94563693 -87.47758961 242.7193346 C-87.59142782 276.14032476 -84.23210106 304.3763867 -61.09926891 330.13422108 C-60.47536266 330.84062733 -59.85145641 331.54703358 -59.20864391 332.27484608 C-44.97912237 347.46097411 -22.8224109 358.63844977 -2.09926891 360.13422108 C3.22056255 360.27988581 8.53875114 360.27374894 13.8600359 360.26793385 C15.48442296 360.26980387 17.10880958 360.27210534 18.73319548 360.27479917 C23.18191922 360.28089977 27.63062411 360.28078563 32.07935107 360.27960479 C36.8831512 360.27940035 41.68694535 360.28492369 46.49074268 360.28966236 C55.89633698 360.29795972 65.30192501 360.30071678 74.70752267 360.30127474 C82.35404092 360.30175029 90.0005571 360.30380701 97.6470747 360.30697536 C119.33610065 360.31577911 141.02512165 360.32039513 162.71414939 360.31964489 C163.88278434 360.31960493 165.05141929 360.31956498 166.25546741 360.31952381 C167.4255324 360.31948293 168.59559738 360.31944205 169.80111887 360.31939993 C188.76523707 360.31899345 207.72933541 360.32856434 226.69344787 360.34266218 C246.17520594 360.35703034 265.65695433 360.36393213 285.13871783 360.3630684 C296.07244181 360.36273661 307.00614496 360.36547618 317.93986416 360.37624645 C327.24832904 360.38535719 336.55676366 360.38752194 345.86523107 360.38073703 C350.61200102 360.37747486 355.35871293 360.37740426 360.10547733 360.38609028 C364.45612591 360.39396942 368.80667056 360.39250943 373.15731665 360.38380615 C374.72589187 360.38227429 376.2944749 360.38407542 377.8630409 360.38966622 C390.49486144 360.43168507 402.02369131 359.43164955 413.77573109 354.57172108 C415.06253773 354.04445423 415.06253773 354.04445423 416.37534046 353.50653553 C440.03042008 343.48143494 458.82962862 324.61939959 468.84409046 300.89984608 C469.72708974 298.63874418 470.54862405 296.36702104 471.33823109 294.07172108 C471.57308216 293.40132801 471.80793324 292.73093494 472.04990101 292.04022694 C475.76104689 280.41215305 476.1999213 268.01271941 476.17538929 255.9096117 C476.17975332 254.56229341 476.18494197 253.21497758 476.19087696 251.86766529 C476.20409341 248.25812863 476.20486559 244.64869774 476.20231366 241.03914165 C476.2012325 238.00520878 476.20615592 234.97129634 476.21091908 231.93736792 C476.22195317 224.77136153 476.22248562 217.60540759 476.21640491 210.43939686 C476.21036342 203.08947393 476.22269467 195.73974236 476.24397498 188.38985205 C476.26168057 182.03691387 476.26757852 175.68403613 476.26433724 169.33107424 C476.26253924 165.5553051 476.26501049 161.77967266 476.27905178 158.00392628 C476.29177367 154.45126323 476.2895531 150.89889558 476.27664089 147.34623623 C476.27320894 145.44915565 476.28434466 143.5520654 476.29620838 141.65501881 C476.13479601 114.76543325 464.92731568 90.73465224 446.58823109 71.38422108 C430.38877565 55.86684798 407.52055968 45.01146624 384.91129208 45.00837994 C383.90539242 45.00619978 383.90539242 45.00619978 382.87917155 45.00397557 C380.64000717 45.00033643 378.40091177 45.00379227 376.16174793 45.00723743 C374.53694908 45.00608479 372.91215049 45.0044963 371.28735244 45.00251019 C366.82831625 44.9983365 362.36930147 45.00039874 357.91026521 45.00349641 C353.0989904 45.00575828 348.28771928 45.00226693 343.4764452 44.99951649 C334.05286586 44.99506807 324.62929449 44.99603121 315.20571484 44.99892913 C307.54625136 45.00118706 299.88679011 45.00149399 292.22732639 45.00040531 C291.137381 45.00025208 290.04743561 45.00009885 288.92446157 44.99994097 C286.71026588 44.99962124 284.4960702 44.99929703 282.28187452 44.99896838 C261.51478642 44.99611623 240.74770274 44.99939631 219.98061536 45.00476874 C202.16378324 45.00923528 184.34695763 45.00846157 166.53012562 45.00384998 C145.84068916 44.99849738 125.15125658 44.99639222 104.46181953 44.99946225 C102.25513546 44.9997808 100.04845138 45.00009517 97.84176731 45.00040531 C96.75603919 45.00055959 95.67031107 45.00071386 94.55168209 45.00087281 C86.90296657 45.001736 79.25425351 45.00027932 71.60553837 44.99792576 C62.28194024 44.9951199 52.95835053 44.9958826 43.63475336 45.0012065 C38.87825917 45.00383307 34.12177901 45.00486626 29.36528492 45.00155735 C25.00918793 44.99857285 20.65311795 45.00022311 16.2970234 45.0055349 C14.72305897 45.0066499 13.14909224 45.00608828 11.57512929 45.00365911 C-14.62729758 44.96632906 -36.49665144 52.29905272 -56.09926891 70.13422108 Z " fill="#2C2B2A" transform="translate(132.09926891326904,-0.13422107696533203)"/>
<path d="M0 0 C33.99 0 67.98 0 103 0 C117.69471829 42.95379194 117.69471829 42.95379194 122.44555664 58.05859375 C129.18622983 79.47081384 136.18228158 100.79701041 143.21340561 122.11504745 C150.54016289 144.32976017 157.82357453 166.55439375 164.90487671 188.84887695 C172.17774189 211.73076543 179.70472286 234.52910274 187.2312212 257.32853699 C188.25277537 260.42350709 189.27344511 263.51876856 190.2940731 266.61404419 C190.99809256 268.74753137 191.70368089 270.88049502 192.40937805 273.01342773 C194.70962198 279.9795539 196.95020145 286.95555231 199 294 C200.92607212 291.11089183 201.82987259 288.85239404 202.90087891 285.57788086 C203.27018021 284.45610443 203.63948151 283.334328 204.01997375 282.17855835 C204.41814804 280.95303253 204.81632233 279.72750671 205.2265625 278.46484375 C205.64984183 277.17262149 206.07348985 275.88051995 206.4974823 274.58853149 C207.64040246 271.1015018 208.77733599 267.61254677 209.91302872 264.1231575 C210.86883861 261.18894778 211.82815349 258.25588874 212.78738117 255.32279491 C218.84879078 236.78539552 224.83109625 218.22363988 230.74273682 199.63790894 C237.03010461 179.88164091 243.50824322 160.18977216 250 140.5 C256.89455648 119.58823694 263.75814635 98.66928718 270.4375 77.6875 C276.03584999 60.10242722 281.70644332 42.54230981 287.4375 25 C288.00173172 23.27020401 288.00173172 23.27020401 288.57736206 21.50546265 C289.63182019 18.27388788 290.68851496 15.04305464 291.74609375 11.8125 C292.06191406 10.84435867 292.37773438 9.87621735 292.703125 8.8787384 C293.13709595 7.55624336 293.13709595 7.55624336 293.57983398 6.20703125 C293.83135727 5.4385083 294.08288055 4.66998535 294.34202576 3.87817383 C295 2 295 2 296 0 C329.99 0 363.98 0 399 0 C398.32482992 4.72619058 397.7793711 8.15015662 396.27270508 12.48413086 C395.91700439 13.5172641 395.56130371 14.55039734 395.19482422 15.61483765 C394.80697754 16.72033966 394.41913086 17.82584167 394.01953125 18.96484375 C393.61516846 20.13334869 393.21080566 21.30185364 392.79418945 22.50576782 C391.70014534 25.66310554 390.60051051 28.81838377 389.49817276 31.97282791 C388.34474952 35.27775496 387.19859876 38.58520299 386.05151367 41.89233398 C383.37698421 49.59814628 380.68981757 57.29951168 378 65 C377.31900713 66.95084521 376.63801723 68.90169145 375.95703125 70.85253906 C373.69496926 77.32988067 371.42943021 83.8059938 369.15722656 90.27978516 C364.59472186 103.28000209 360.07413579 116.29454958 355.5625 129.3125 C350.22446481 144.71399757 344.87410891 160.11105159 339.5 175.5 C334.1477936 190.82681336 328.81754036 206.16112569 323.5 221.5 C317.8787687 237.71489534 312.2408123 253.923808 306.58300781 270.12597656 C301.89926074 283.54010872 297.23412459 296.96060701 292.57998657 310.38504028 C289.38832808 319.59060626 286.19435577 328.7953697 283 338 C282.65052307 339.00718079 282.30104614 340.01436157 281.940979 341.05206299 C279.88829838 346.96706331 277.8333762 352.88127683 275.77539062 358.79443359 C275.14628553 360.60295123 274.51783887 362.41169808 273.89013672 364.22070312 C273.01846168 366.73242214 272.1442763 369.24325502 271.26953125 371.75390625 C270.90484489 372.80735985 270.90484489 372.80735985 270.53279114 373.88209534 C267.82263495 381.64283304 264.88910975 389.29570733 262 397 C220.75 397 179.5 397 137 397 C133.94997587 389.67994208 131.03529625 382.54702224 128.5390625 375.05859375 C128.07869347 373.69614281 128.07869347 373.69614281 127.60902405 372.3061676 C126.95248297 370.36233225 126.29772149 368.41789504 125.6446228 366.47290039 C123.87559541 361.2065348 122.09158638 355.94524434 120.30859375 350.68359375 C119.94556656 349.61144623 119.58253937 348.53929871 119.20851135 347.43466187 C115.76179292 337.26854532 112.23618856 327.13089086 108.6875 317 C102.96019 300.63863942 97.2796446 284.26161897 91.625 267.875 C85.57645652 250.34930128 79.51801158 232.82713472 73.4375 215.3125 C67.63821621 198.60679777 61.84612484 181.89863034 56.0625 165.1875 C55.69038391 164.11240173 55.31826782 163.03730347 54.93487549 161.92962646 C51.13646083 150.95540068 47.3390191 139.9808391 43.54353333 129.00559998 C36.44043819 108.46644248 29.33521239 87.92809045 22.17712402 67.40802002 C21.56384014 65.6497646 20.95079913 63.89142445 20.3380127 62.13299561 C17.23627023 53.23240708 14.12356411 44.33598848 10.97421265 35.45211792 C9.65054981 31.71726093 8.33113065 27.98091039 7.01184082 24.24450684 C6.08377673 21.62260942 5.14891478 19.00320236 4.21386719 16.38378906 C3.65394044 14.79895401 3.09435092 13.21399976 2.53515625 11.62890625 C2.27660355 10.91128616 2.01805084 10.19366608 1.75166321 9.45429993 C0.56363414 6.06378698 0 3.64455412 0 0 Z " fill="#801711" transform="translate(771,3)"/>
<path d="M0 0 C655.38 0 1310.76 0 1986 0 C1986 8.58 1986 17.16 1986 26 C1330.62 26 675.24 26 0 26 C0 17.42 0 8.84 0 0 Z " fill="#2A2928" transform="translate(0,632)"/>
<path d="M0 0 C1.06009277 0.29801514 1.06009277 0.29801514 2.14160156 0.60205078 C24.43813327 6.99781138 43.55388821 19.22788781 55.08984375 39.95849609 C69.66579346 67.63853583 72.84442834 102.47521792 63.67578125 132.53125 C62.29306095 136.76162168 60.7067976 140.89080426 59 145 C58.55914062 146.06734375 58.11828125 147.1346875 57.6640625 148.234375 C48.68250614 167.85881607 31.83241377 182.9106592 11.73706055 190.51855469 C11.01945557 190.78055664 10.30185059 191.04255859 9.5625 191.3125 C8.90741455 191.55516602 8.2523291 191.79783203 7.57739258 192.04785156 C-3.37762213 195.80902451 -14.7598617 196.36541107 -26.25 196.3125 C-27.51908203 196.30758545 -28.78816406 196.3026709 -30.09570312 196.29760742 C-53.47950081 196.00665282 -74.17411787 189.68097924 -92 174 C-92.76183594 173.33355469 -93.52367187 172.66710937 -94.30859375 171.98046875 C-104.05382396 162.8770388 -110.52131787 151.47395913 -115 139 C-115.55300781 137.4840625 -115.55300781 137.4840625 -116.1171875 135.9375 C-126.52627192 106.15384238 -124.14249612 72.29141525 -110.8125 43.875 C-101.91234496 26.8436018 -89.00995094 14.74913744 -72 6 C-70.84757812 5.38511719 -70.84757812 5.38511719 -69.671875 4.7578125 C-49.2994102 -5.2729049 -21.52125067 -6.18560892 0 0 Z " fill="#9A121B" transform="translate(233,105)"/>
<path d="M0 0 C204.93 0 409.86 0 621 0 C621 15.51 621 31.02 621 47 C416.07 47 211.14 47 0 47 C0 31.49 0 15.98 0 0 Z " fill="#2A2928" transform="translate(0,759)"/>
<path d="M0 0 C10.66391497 7.78843713 17.04775278 18.97093567 24.125 29.875 C25.60081319 32.13981614 27.07722997 34.40422604 28.5546875 36.66796875 C28.96138672 37.2912355 29.36808594 37.91450226 29.78710938 38.55665588 C35.59632364 47.45289779 41.43912013 56.3271011 47.28314209 65.20050049 C48.58857344 67.18301422 49.89346932 69.16588066 51.19781494 71.14910889 C53.05240086 73.96878752 54.9087835 76.78727513 56.765625 79.60546875 C57.32025421 80.44934647 57.87488342 81.29322418 58.44631958 82.16267395 C61.53692271 86.84823141 64.70673487 91.45442547 68 96 C68.00364563 95.07229294 68.00729126 94.14458588 68.01104736 93.18876648 C68.04905924 84.40644424 68.10606079 75.62448838 68.18390274 66.84242535 C68.22325687 62.32844874 68.25550408 57.81466368 68.27099609 53.30053711 C68.28624273 48.93659781 68.32082827 44.57318557 68.36830902 40.20948219 C68.38304082 38.5523419 68.39103626 36.89512632 68.39188385 35.23792076 C68.40360059 23.8066398 68.78164784 12.2427723 77.18359375 3.50390625 C83.26175397 -1.52854899 89.4344533 -3.83011316 97.33203125 -3.41796875 C104.58633774 -2.28149614 111.24066231 1.37532819 116 7 C119.56625928 13.23282396 121.12104148 18.99273696 121.14044189 26.14627075 C121.14615204 27.40785507 121.15186218 28.66943939 121.15774536 29.96925354 C121.15899066 31.36508169 121.16011576 32.76090995 121.16113281 34.15673828 C121.16576294 35.62877018 121.17078787 37.10080089 121.17617798 38.5728302 C121.18928828 42.5710707 121.19574467 46.56929441 121.20018864 50.56755304 C121.20312257 53.06823991 121.20722806 55.56892222 121.21169281 58.06960678 C121.22536633 65.9013864 121.23503277 73.73315557 121.2388947 81.56494629 C121.24337029 90.59065309 121.26089556 99.61620806 121.2898953 108.64186871 C121.31155607 115.62718898 121.32160138 122.61246668 121.32293582 129.59782016 C121.32398103 133.76539824 121.32982766 137.93283356 121.34775543 142.10037613 C121.36431153 146.02548575 121.36635535 149.95034651 121.35761642 153.87547874 C121.35684997 155.30968966 121.36113667 156.74391436 121.37107468 158.17809105 C121.44925537 170.17189518 120.18558503 180.71567873 112 190 C103.84524185 196.5835138 95.16646274 196.75731011 85.046875 196.2265625 C76.9650699 195.33201155 69.67092372 189.34005726 64.55615234 183.29296875 C63.15182948 181.4143857 61.81671596 179.50348684 60.5 177.5625 C59.99573486 176.83369629 59.49146973 176.10489258 58.97192383 175.35400391 C52.78276511 166.34219805 46.8573783 157.15241849 40.92333984 147.97167969 C38.44827525 144.14755094 35.9600296 140.33211857 33.46989441 136.51779175 C31.65071688 133.73089164 29.8323447 130.94346893 28.0144043 128.15576172 C27.36291916 127.15676849 26.71143402 126.15777527 26.04020691 125.12850952 C25.36693863 124.09610138 24.69367035 123.06369324 24 122 C22.66211588 119.94856347 21.32422528 117.89713116 19.98632812 115.84570312 C16.32421875 110.23046875 12.66210938 104.61523438 9 99 C8.99635437 99.9004303 8.99270874 100.8008606 8.98895264 101.72857666 C8.95091147 110.26041837 8.89387751 118.79188407 8.81609726 127.32345963 C8.77677408 131.70849237 8.74451197 136.09332886 8.72900391 140.47851562 C8.71373651 144.71927268 8.67911547 148.95948961 8.63169098 153.20000458 C8.61698022 154.80886867 8.60896498 156.41780991 8.60811615 158.02674103 C8.59695033 168.58964127 8.25967584 179.48450616 1.875 188.4375 C-5.63576118 195.13187409 -12.47703882 196.80371779 -22.5078125 196.41015625 C-29.24095394 195.61935105 -33.09106247 193.19803846 -37.8125 188.4375 C-44.77908118 179.61432528 -44.44184595 168.71463874 -44.40405273 157.95678711 C-44.40976757 156.47386667 -44.4167361 154.99095063 -44.42485046 153.50804138 C-44.44267047 149.51221661 -44.44163518 145.51661274 -44.43590808 141.5207603 C-44.43280114 138.17339795 -44.43892505 134.82607713 -44.44494683 131.47872072 C-44.45895267 123.57847019 -44.45746265 115.67832789 -44.44604492 107.77807617 C-44.4345568 99.6498765 -44.44865993 91.52200653 -44.4754414 83.39385027 C-44.49764296 76.39138349 -44.50422608 69.38901989 -44.49836498 62.38652045 C-44.49500614 58.21455417 -44.49733915 54.04279936 -44.51461601 49.87086296 C-44.53015543 45.94802985 -44.52605294 42.02568341 -44.50731087 38.10286903 C-44.50364479 36.67027246 -44.50667519 35.23763923 -44.51719666 33.8050766 C-44.59086669 22.93825799 -43.35323984 13.72228205 -35.703125 5.53125 C-25.92253257 -3.26231017 -11.97723017 -6.51793808 0 0 Z " fill="#9A121B" transform="translate(357,105)"/>
<path d="M0 0 C8.7095705 6.94771082 13.79339111 16.86782576 16.796875 27.4453125 C16.796875 28.1053125 16.796875 28.7653125 16.796875 29.4453125 C7.886875 29.4453125 -1.023125 29.4453125 -10.203125 29.4453125 C-11.523125 27.1353125 -12.843125 24.8253125 -14.203125 22.4453125 C-19.5437928 15.99030689 -27.25772335 13.03491026 -35.4140625 12.0625 C-44.91014616 11.72415973 -53.12955348 13.61115221 -60.578125 19.6953125 C-69.31695104 28.13033477 -72.29796039 37.94695873 -72.578125 49.9453125 C-72.31986143 60.5664019 -69.97415738 70.04236111 -63.203125 78.4453125 C-55.73446126 85.51458246 -46.69832203 88.43849447 -36.515625 88.7578125 C-26.87117565 88.3241592 -18.42060471 85.55106888 -11.37890625 78.66015625 C-6.94387338 73.21970031 -5.73031383 68.39508178 -3.203125 61.4453125 C-16.403125 61.4453125 -29.603125 61.4453125 -43.203125 61.4453125 C-43.203125 55.5053125 -43.203125 49.5653125 -43.203125 43.4453125 C-22.743125 43.4453125 -2.283125 43.4453125 18.796875 43.4453125 C18.796875 76.08027394 18.796875 76.08027394 7.796875 90.4453125 C7.34699219 91.05890625 6.89710937 91.6725 6.43359375 92.3046875 C-2.161738 103.24860285 -15.58628517 109.33229128 -29.1484375 111.1640625 C-46.49236316 112.76094568 -62.80996629 109.85752146 -77.0546875 99.33984375 C-89.5667388 88.66112927 -96.98214453 74.33076112 -98.42407227 57.93261719 C-99.27471718 39.47488671 -96.87605344 22.1779339 -84.7265625 7.44140625 C-62.66195554 -15.92672937 -26.06365559 -18.39243781 0 0 Z " fill="#801711" transform="translate(1839.203125,727.5546875)"/>
<path d="M0 0 C8.25 0 16.5 0 25 0 C25.33 15.51 25.66 31.02 26 47 C27.98 44.36 29.96 41.72 32 39 C41.57891164 30.86696181 51.71800033 30.06216122 63.89257812 30.78857422 C74.807403 31.8835972 83.5362598 38.47408989 90.3984375 46.66796875 C93.44097593 51.09820154 95.26582389 55.93972829 97 61 C97.2475 61.70511719 97.495 62.41023437 97.75 63.13671875 C101.6909181 77.06676953 99.6937896 94.27969647 93.45703125 107.1953125 C87.49611375 117.20747141 79.91795746 123.05060433 69 127 C58.75456901 129.59440753 47.41053265 128.89969882 38 124 C33.33276848 120.51530153 29.23871944 116.85807916 26 112 C25.67 116.95 25.34 121.9 25 127 C16.75 127 8.5 127 0 127 C0 85.09 0 43.18 0 0 Z M29.4765625 62.80078125 C24.58359798 70.08845063 24.00354529 78.08411125 25.43359375 86.57421875 C27.02020641 93.00936204 29.83471086 97.79411729 35 102 C41.73803685 105.94258685 48.43454837 107.18279048 56.05859375 105.5625 C62.17604311 103.65452359 67.74393077 99.65638807 71.1328125 94.1640625 C75.03584785 85.48644022 75.02046128 76.35392606 72.03515625 67.42578125 C69.43800891 61.33963597 65.65859167 56.29139333 59.46875 53.625 C47.20764973 50.52092398 37.34025105 53.08786913 29.4765625 62.80078125 Z " fill="#801711" transform="translate(1374,711)"/>
<path d="M0 0 C8.25 0 16.5 0 25 0 C25 41.91 25 83.82 25 127 C16.75 127 8.5 127 0 127 C-0.495 119.575 -0.495 119.575 -1 112 C-1.969375 113.19625 -2.93875 114.3925 -3.9375 115.625 C-10.70170671 123.31655763 -18.00103853 127.53899056 -28.26171875 128.21484375 C-40.81418423 128.55409957 -51.51190914 125.77424562 -61.0078125 117.18359375 C-71.67070842 105.75906241 -74.64978172 91.00499104 -74.28515625 75.73828125 C-73.14289166 60.76366192 -68.52282152 48.02209477 -57 38 C-45.34586933 30.78205224 -33.12360627 29.12570025 -19.6875 31.61328125 C-11.86077203 34.13695632 -5.55308744 39.17036884 -1 46 C-0.67 30.82 -0.34 15.64 0 0 Z M-43.6484375 60.828125 C-48.7813752 68.12698438 -49.608439 76.66164984 -48.53125 85.328125 C-47.15661097 92.24175071 -44.56400783 97.4536323 -38.9140625 101.78125 C-32.98020803 105.55954101 -26.99519772 107.00758643 -20 106 C-12.35183116 104.13487907 -7.2590486 100.63701741 -3 94 C0.71412574 86.87683741 1.2058089 78.49624522 -0.50390625 70.703125 C-1.18929108 68.68221887 -1.99435373 66.88100639 -3 65 C-3.49306641 64.07574219 -3.49306641 64.07574219 -3.99609375 63.1328125 C-7.17444651 58.00785615 -11.25123684 54.83831417 -17 53 C-27.56008019 51.47324142 -36.29969905 52.67833923 -43.6484375 60.828125 Z " fill="#801711" transform="translate(1292,711)"/>
<path d="M0 0 C9.82014939 6.48393741 14.10704225 17.68270883 16.66015625 28.71875 C19.93427728 46.75894007 18.78084945 67.71760642 8.84765625 83.53125 C3.37094621 91.21786058 -4.03276325 96.68875362 -13.33984375 98.71875 C-26.14992492 99.7699316 -37.01016712 99.26432343 -47.203125 90.796875 C-57.73845251 80.55045044 -62.21587723 66.90254147 -62.640625 52.4765625 C-62.65504957 50.2656686 -62.65880846 48.0546815 -62.65234375 45.84375 C-62.66845703 44.74933594 -62.68457031 43.65492188 -62.70117188 42.52734375 C-62.70940706 28.60988276 -58.8032143 16.99185397 -51.15234375 5.40625 C-36.20947581 -8.87249047 -17.74222519 -9.71527523 0 0 Z " fill="#FDFCFC" transform="translate(228.33984375,155.28125)"/>
<path d="M0 0 C11.54760943 9.23101397 20.2647642 19.90531442 22 35 C17.79313516 35.29133413 13.58885739 35.46826779 9.375 35.625 C8.18519531 35.70878906 6.99539063 35.79257812 5.76953125 35.87890625 C2.25754175 35.97700652 -0.61036382 35.94134488 -4 35 C-6.22997573 32.65255809 -7.43931335 30.50392083 -8.74267578 27.55004883 C-11.66754787 21.61795389 -17.73153353 18.17082866 -23.8125 16.0625 C-33.6621449 13.60008878 -43.22935049 14.22190276 -52.12109375 19.18359375 C-60.49469011 24.77126769 -64.45957118 33.232441 -66.53125 42.86328125 C-68.37874009 55.22606911 -67.21926288 67.73911578 -59.66796875 78.03125 C-54.11646289 84.58384708 -47.70240717 88.93873083 -39 90 C-28.80925243 90.50953738 -20.08362675 88.55213239 -12 82 C-8.8593969 78.28371466 -6.177278 74.354556 -4 70 C4.58 70 13.16 70 22 70 C20.08859246 83.37985276 13.26290085 94.20672579 2.84765625 102.76953125 C-11.20189672 112.80492623 -27.83448626 115.63880349 -44.734375 113.53515625 C-58.45799409 111.16853214 -68.25080898 105.8714927 -78 96 C-78.86238281 95.17048828 -78.86238281 95.17048828 -79.7421875 94.32421875 C-91.02169687 82.54794342 -93.52739621 65.16118236 -93.41967773 49.54052734 C-92.94047659 33.33397546 -87.65311523 17.97804852 -76.28515625 6.0625 C-56.99137571 -11.35137372 -21.90886684 -16.19529744 0 0 Z " fill="#801711" transform="translate(1964,725)"/>
<path d="M0 0 C8.25 0 16.5 0 25 0 C25.0093457 2.33553955 25.01869141 4.6710791 25.02832031 7.07739258 C25.06221854 14.82876252 25.11783822 22.57986982 25.18390274 30.33102894 C25.22326661 35.02660755 25.25550915 39.72200173 25.27099609 44.41772461 C25.28623617 48.95671848 25.32081055 53.49520495 25.36830902 58.03397179 C25.38304747 59.75809993 25.39103665 61.48230054 25.39188385 63.20649147 C25.12098009 78.33858868 25.12098009 78.33858868 31.41143799 91.69416809 C36.59766203 96.34435647 41.65053371 97.29199557 48.4375 97.3125 C50.35369141 97.33763672 50.35369141 97.33763672 52.30859375 97.36328125 C58.75651181 96.72872423 62.8829412 93.89596182 67 89 C70.46200849 82.19962619 71.14244466 75.87043408 71.20532227 68.34228516 C71.21522186 67.60013763 71.22512146 66.85799011 71.23532104 66.09335327 C71.26671917 63.6586213 71.29160697 61.22386986 71.31640625 58.7890625 C71.33699455 57.0936942 71.3579915 55.39833082 71.37937927 53.70297241 C71.43440631 49.25445554 71.4839005 44.80589384 71.53222656 40.3572998 C71.58258355 35.81237834 71.6381953 31.26752146 71.69335938 26.72265625 C71.80070386 17.81515745 71.90171487 8.90760337 72 0 C79.92 0 87.84 0 96 0 C96.06798986 10.63187067 96.12293915 21.26359508 96.15543652 31.89563465 C96.1710398 36.8334192 96.19217975 41.77104628 96.22631836 46.70874023 C96.25910321 51.48092365 96.27689308 56.25295634 96.28463173 61.02524376 C96.2901411 62.83875587 96.30089885 64.65226047 96.31719017 66.46570778 C96.45180073 82.08196862 94.97416411 97.2493344 83.85546875 109.33984375 C71.66184206 120.24993079 57.89368433 122.72808931 41.99804688 122.13623047 C31.04560063 121.38947277 19.78721771 116.78721771 12 109 C0.64265662 94.64637257 -0.30444317 79.11930782 -0.1953125 61.5234375 C-0.19157605 59.74411173 -0.18873207 57.96478389 -0.18673706 56.18545532 C-0.17915031 51.53304223 -0.15954516 46.88075671 -0.1373291 42.22839355 C-0.11676309 37.46868617 -0.10771248 32.70895789 -0.09765625 27.94921875 C-0.07629395 18.63274782 -0.04115299 9.31640455 0 0 Z " fill="#801711" transform="translate(1628,717)"/>
<path d="M0 0 C24.09 0 48.18 0 73 0 C73 6.6 73 13.2 73 20 C57.16 20 41.32 20 25 20 C25 29.9 25 39.8 25 50 C39.19 50 53.38 50 68 50 C68 56.27 68 62.54 68 69 C53.81 69 39.62 69 25 69 C25 79.56 25 90.12 25 101 C40.84 101 56.68 101 73 101 C73 107.6 73 114.2 73 121 C48.91 121 24.82 121 0 121 C0 81.07 0 41.14 0 0 Z " fill="#801711" transform="translate(690,717)"/>
<path d="M0 0 C9.24 0 18.48 0 28 0 C31.35568566 7.38250844 34.60203265 14.74214902 37.64453125 22.25 C38.05918137 23.27053467 38.47383148 24.29106934 38.90104675 25.3425293 C39.76690667 27.47638076 40.63150331 29.61074524 41.49487305 31.74560547 C42.82118738 35.02145689 44.15558725 38.2939424 45.49023438 41.56640625 C46.33382822 43.64823703 47.17694465 45.73026135 48.01953125 47.8125 C48.41944778 48.79057617 48.81936432 49.76865234 49.23139954 50.77636719 C49.59565536 51.68161133 49.95991119 52.58685547 50.33520508 53.51953125 C50.65765701 54.31464111 50.98010895 55.10975098 51.31233215 55.92895508 C52 58 52 58 52 61 C52.66 61 53.32 61 54 61 C54.16789032 60.41299316 54.33578064 59.82598633 54.50875854 59.22119141 C56.47298775 52.49994096 58.76625695 45.94082579 61.1953125 39.375 C61.58822479 38.30628662 61.98113708 37.23757324 62.38595581 36.13647461 C63.20984209 33.89727063 64.03514842 31.65858868 64.86181641 29.42041016 C66.13117395 25.98328237 67.39602205 22.54452063 68.66015625 19.10546875 C69.46328136 16.9243833 70.26665772 14.74339034 71.0703125 12.5625 C71.63904587 11.01731689 71.63904587 11.01731689 72.2192688 9.44091797 C72.56988373 8.4923291 72.92049866 7.54374023 73.28173828 6.56640625 C73.59023712 5.73052979 73.89873596 4.89465332 74.21658325 4.03344727 C75 2 75 2 76 0 C85.24 0 94.48 0 104 0 C100.17566328 10.38954569 96.13703804 20.63094309 91.796875 30.81417847 C90.03977652 34.93896933 88.2955036 39.06918108 86.55078125 43.19921875 C86.18248199 44.07069046 85.81418274 44.94216217 85.4347229 45.84004211 C81.06924117 56.18352695 76.78137396 66.55897913 72.5 76.9375 C72.10546631 77.89370239 71.71093262 78.84990479 71.30444336 79.83508301 C63.17428494 99.54493606 55.08144344 119.27013119 47 139 C37.76 139 28.52 139 19 139 C21.10576231 132.68271306 23.23128303 127.29352151 26.29296875 121.51171875 C36.05947555 104.5835538 36.05947555 104.5835538 38.7578125 86.0078125 C37.33353782 81.76770598 35.04051395 78.12610448 32.54394531 74.43603516 C29.67506177 69.90951397 27.78117621 64.91901148 25.6875 60 C24.67948629 57.74053093 23.66751285 55.48282574 22.65234375 53.2265625 C18.37421438 43.65763693 14.22027156 34.03433123 10.06265259 24.41259766 C9.18755409 22.38754002 8.31171983 20.36280016 7.43515015 18.33837891 C6.19958338 15.4842469 4.96654928 12.62903546 3.734375 9.7734375 C3.35684586 8.90181976 2.97931671 8.03020203 2.59034729 7.13217163 C2.0772123 5.94018661 2.0772123 5.94018661 1.55371094 4.72412109 C1.25237244 4.02612396 0.95103394 3.32812683 0.64056396 2.60897827 C0 1 0 1 0 0 Z " fill="#801711" transform="translate(1478,743)"/>
<path d="M0 0 C8.49503074 6.76381594 13.9194842 17.24215555 15.47265625 27.96875 C15.56402707 30.36320293 15.60270618 32.7600597 15.59765625 35.15625 C15.60152344 37.00283203 15.60152344 37.00283203 15.60546875 38.88671875 C15.47265625 41.96875 15.47265625 41.96875 14.47265625 43.96875 C-8.29734375 43.96875 -31.06734375 43.96875 -54.52734375 43.96875 C-51.67433462 55.54429066 -51.67433462 55.54429066 -44.52734375 63.96875 C-38.82521597 66.85102992 -32.77110905 68.09281835 -26.4921875 66.4296875 C-22.21080332 64.97321662 -18.72035634 63.25299152 -15.52734375 59.96875 C-14.04234375 56.50375 -14.04234375 56.50375 -12.52734375 52.96875 C-3.61734375 52.96875 5.29265625 52.96875 14.47265625 52.96875 C11.40128319 65.25424224 6.57838726 74.40523472 -4.46484375 81.34375 C-16.87487157 88.23608853 -30.99926436 89.95454346 -44.83984375 86.78125 C-56.43924286 83.39615093 -65.33708304 77.75414106 -72.16015625 67.51953125 C-79.72008037 53.46350467 -81.03678678 35.8320863 -76.49609375 20.5703125 C-72.4834757 9.79449146 -65.12874701 -0.09361012 -54.52734375 -5.03125 C-36.75641822 -12.97589906 -15.95297155 -10.8342483 0 0 Z M-46.734375 15.28515625 C-51.82764662 20.0677272 -53.41461521 26.29237874 -54.52734375 32.96875 C-39.67734375 32.96875 -24.82734375 32.96875 -9.52734375 32.96875 C-10.49037069 22.13261201 -10.49037069 22.13261201 -16.96484375 14.71875 C-26.41385463 8.26576696 -37.41023256 9.0132281 -46.734375 15.28515625 Z " fill="#801711" transform="translate(1191.52734375,751.03125)"/>
<path d="M0 0 C1.29744141 -0.04350586 1.29744141 -0.04350586 2.62109375 -0.08789062 C12.19217211 -0.181162 20.53007999 3.61198759 27.375 10.3125 C36.05483652 21.30957794 36.82757351 33.9723031 36.66796875 47.484375 C36.66235714 48.90211533 36.65809447 50.31986158 36.65510559 51.73760986 C36.64377963 55.42672457 36.61442207 59.11547159 36.58099365 62.80444336 C36.55002468 66.58572418 36.5365436 70.36706578 36.52148438 74.1484375 C36.48953712 81.5366435 36.43687362 88.9244729 36.375 96.3125 C28.125 96.3125 19.875 96.3125 11.375 96.3125 C11.3656543 94.53681641 11.35630859 92.76113281 11.34667969 90.93164062 C11.31104313 85.04020103 11.25717598 79.14907669 11.19109726 73.25791168 C11.15172284 69.68885052 11.11948584 66.12003236 11.10400391 62.55078125 C11.0887702 59.10101111 11.05420863 55.65190947 11.00669098 52.20243835 C10.98480909 50.25733638 10.98253204 48.31204543 10.98065186 46.36682129 C10.8624268 39.16825556 10.09812929 34.49115259 6.375 28.3125 C6.375 27.6525 6.375 26.9925 6.375 26.3125 C-1.34458511 22.34885652 -7.95879122 20.20333992 -16.625 22.3125 C-22.40122195 24.55023484 -26.11345271 28.2098503 -28.8125 33.75 C-30.29676659 38.43114848 -30.74994137 43.05893203 -30.83032227 47.95068359 C-30.85026749 49.03135101 -30.87021271 50.11201843 -30.89076233 51.22543335 C-30.90747482 52.37564972 -30.92418732 53.52586609 -30.94140625 54.7109375 C-30.96218735 55.90103424 -30.98296844 57.09113098 -31.00437927 58.31729126 C-31.06960095 62.10730385 -31.12863234 65.89738391 -31.1875 69.6875 C-31.23071126 72.26172564 -31.27432638 74.83594453 -31.31835938 77.41015625 C-31.42601179 83.71086944 -31.52528936 90.01163611 -31.625 96.3125 C-39.875 96.3125 -48.125 96.3125 -56.625 96.3125 C-56.625 64.9625 -56.625 33.6125 -56.625 1.3125 C-48.375 1.3125 -40.125 1.3125 -31.625 1.3125 C-31.13 8.2425 -31.13 8.2425 -30.625 15.3125 C-29.51125 13.930625 -28.3975 12.54875 -27.25 11.125 C-19.72327897 2.60544945 -10.96877085 0.11939881 0 0 Z " fill="#801711" transform="translate(835.625,741.6875)"/>
<path d="M0 0 C8.25 0 16.5 0 25 0 C25 7.59 25 15.18 25 23 C31.93 23 38.86 23 46 23 C46 29.93 46 36.86 46 44 C39.07 44 32.14 44 25 44 C25.11986839 50.47799357 25.24250784 56.95580934 25.37231445 63.43359375 C25.4156301 65.637338 25.45730759 67.84111508 25.49731445 70.04492188 C25.55509844 73.21234024 25.61876976 76.37959386 25.68359375 79.546875 C25.70030624 80.53242371 25.71701874 81.51797241 25.73423767 82.53338623 C25.7641555 83.91436493 25.7641555 83.91436493 25.79467773 85.32324219 C25.81799416 86.53569611 25.81799416 86.53569611 25.84178162 87.77264404 C25.99702135 89.95806731 26.40008809 91.89708581 27 94 C30.84843308 95.18031839 34.75891143 95.33211239 38.75 95.5625 C41.1425 95.706875 43.535 95.85125 46 96 C46 103.26 46 110.52 46 118 C17.44604798 118.6118704 17.44604798 118.6118704 7.41796875 109.57421875 C0.68950633 102.71478869 -0.34202894 93.53750332 -0.33988953 84.28291321 C-0.32440567 83.26787216 -0.30892181 82.25283112 -0.29296875 81.20703125 C-0.28872391 80.13498947 -0.28447906 79.06294769 -0.28010559 77.9584198 C-0.26347989 74.57617739 -0.22585846 71.19455851 -0.1875 67.8125 C-0.17243233 65.50196181 -0.1587476 63.19141416 -0.14648438 60.88085938 C-0.11362928 55.25367057 -0.06196021 49.62694053 0 44 C-4.29 44 -8.58 44 -13 44 C-13 37.07 -13 30.14 -13 23 C-8.71 23 -4.42 23 0 23 C0 15.41 0 7.82 0 0 Z " fill="#801711" transform="translate(1010,720)"/>
<path d="M0 0 C8.25 0 16.5 0 25 0 C25 7.59 25 15.18 25 23 C31.93 23 38.86 23 46 23 C46 29.93 46 36.86 46 44 C39.07 44 32.14 44 25 44 C25.07402696 50.31781817 25.15688351 56.63422774 25.26245117 62.95141602 C25.29567746 65.09977898 25.32371653 67.24822875 25.34643555 69.39672852 C25.38002331 72.48751776 25.43234221 75.57751312 25.48828125 78.66796875 C25.49467117 79.62648239 25.5010611 80.58499603 25.50764465 81.57255554 C25.61553418 86.48110363 25.72437657 90.05870965 29 94 C32.04112998 95.52056499 35.28197797 95.3741161 38.625 95.5625 C41.05875 95.706875 43.4925 95.85125 46 96 C46 103.26 46 110.52 46 118 C18.01119966 118.59976001 18.01119966 118.59976001 8.68359375 110.7265625 C0.34153617 102.17159858 -0.31307624 92.06928021 -0.1953125 80.62109375 C-0.1924826 79.56841812 -0.18965271 78.51574249 -0.18673706 77.4311676 C-0.17562562 74.09982484 -0.15053798 70.76876023 -0.125 67.4375 C-0.11495852 65.16601953 -0.10583472 62.89453481 -0.09765625 60.62304688 C-0.07571592 55.0819256 -0.041249 49.54100981 0 44 C-4.29 44 -8.58 44 -13 44 C-13 37.07 -13 30.14 -13 23 C-8.71 23 -4.42 23 0 23 C0 15.41 0 7.82 0 0 Z " fill="#801711" transform="translate(897,720)"/>
<path d="M0 0 C8.25 0 16.5 0 25 0 C25 41.91 25 83.82 25 127 C16.75 127 8.5 127 0 127 C0 85.09 0 43.18 0 0 Z " fill="#801711" transform="translate(1072,711)"/>
<path d="M0 0 C8.25 0 16.5 0 25 0 C25 31.35 25 62.7 25 95 C16.75 95 8.5 95 0 95 C0 63.65 0 32.3 0 0 Z " fill="#801711" transform="translate(959,743)"/>
<path d="M0 0 C6.32678117 4.06208109 12.18524107 8.76795641 14.0625 16.32421875 C15.02730609 26.43804815 14.73179988 34.90420072 8.3125 43.07421875 C3.42907823 48.39496187 -2.14444319 51.057656 -9.328125 51.5625 C-16.7003188 51.70427296 -22.76544125 51.81700615 -28.9375 47.32421875 C-30.01 46.58171875 -31.0825 45.83921875 -32.1875 45.07421875 C-37.8602014 39.40151735 -40.08620512 32.69074302 -40.3125 24.76171875 C-40.22999339 16.75857749 -38.46359701 11.21915436 -33.0703125 5.26171875 C-23.88931003 -3.31198006 -11.47788384 -6.01322958 0 0 Z " fill="#9A121B" transform="translate(532.9375,249.67578125)"/>
<path d="M0 0 C9 0 9 0 11.22460938 1.80200195 C11.75892578 2.66784912 12.29324219 3.53369629 12.84375 4.42578125 C13.4934375 5.4307666 14.143125 6.43575195 14.8125 7.47119141 C15.15861328 8.0337262 15.50472656 8.59626099 15.86132812 9.17584229 C17.09330107 11.14946876 18.38198799 13.07573134 19.6875 15.00146484 C22.65436546 19.37784019 25.57853999 23.78058523 28.5 28.1875 C31.965 33.405625 35.43 38.62375 39 44 C39.33 29.48 39.66 14.96 40 0 C42.97 0 45.94 0 49 0 C49 20.46 49 40.92 49 62 C39 62 39 62 36.70323181 60.38101196 C36.21327225 59.62315399 35.72331268 58.86529602 35.21850586 58.08447266 C34.64188705 57.23003571 34.06526825 56.37559875 33.47117615 55.49526978 C32.89158646 54.56097137 32.31199677 53.62667297 31.71484375 52.6640625 C31.0876796 51.71437592 30.46051544 50.76468933 29.81434631 49.78622437 C27.82208324 46.75274455 25.88009892 43.69046484 23.9375 40.625 C22.59756734 38.56824625 21.25450106 36.51353035 19.90820312 34.4609375 C10.62612947 20.25225893 10.62612947 20.25225893 9 17 C8.67 31.85 8.34 46.7 8 62 C5.36 62 2.72 62 0 62 C0 41.54 0 21.08 0 0 Z " fill="#2A2928" transform="translate(900,523)"/>
<path d="M0 0 C10 0 10 0 13.02783203 2.83886719 C13.89036838 4.13503283 14.71544031 5.45666582 15.5078125 6.796875 C16.19059769 7.8528891 16.19059769 7.8528891 16.88717651 8.93023682 C18.33384204 11.18386322 19.72935528 13.46450495 21.125 15.75 C22.06834223 17.24035757 23.01493185 18.72866488 23.96484375 20.21484375 C25.7408128 23.00050835 27.49473794 25.79782648 29.23095703 28.60839844 C32.71782492 34.13844424 36.37361573 39.5604236 40 45 C40.33 30.15 40.66 15.3 41 0 C43.64 0 46.28 0 49 0 C49 20.46 49 40.92 49 62 C40 62 40 62 37.77539062 60.19799805 C37.24107422 59.33215088 36.70675781 58.46630371 36.15625 57.57421875 C35.5065625 56.5692334 34.856875 55.56424805 34.1875 54.52880859 C33.84138672 53.9662738 33.49527344 53.40373901 33.13867188 52.82415771 C31.90669893 50.85053124 30.61801201 48.92426866 29.3125 46.99853516 C26.34563454 42.62215981 23.42146001 38.21941477 20.5 33.8125 C17.035 28.594375 13.57 23.37625 10 18 C9.67 32.52 9.34 47.04 9 62 C6.03 62 3.06 62 0 62 C0 41.54 0 21.08 0 0 Z " fill="#2A2928" transform="translate(261,523)"/>
<path d="M0 0 C3.79794175 3.34599461 6.62978227 7.06721616 8 12 C8 12.99 8 13.98 8 15 C5.36 15.66 2.72 16.32 0 17 C-0.47179688 16.18595703 -0.47179688 16.18595703 -0.953125 15.35546875 C-3.99382539 10.27237021 -6.20247142 6.93250953 -12 5 C-19.34946715 4.33582593 -25.9877068 4.30924951 -32 9 C-37.81606606 15.88744665 -38.47274803 23.05995068 -38.3125 31.7734375 C-37.72516695 37.83765124 -35.69734167 42.76619872 -31.1875 46.9375 C-25.61126289 50.54565342 -19.61438464 52.00217949 -13 51 C-8.85027734 49.65332055 -4.89973009 47.94986505 -1 46 C-0.5316735 43.41394668 -0.5316735 43.41394668 -0.375 40.4375 C-0.189375 37.7459375 -0.189375 37.7459375 0 35 C-5.94 35 -11.88 35 -18 35 C-18 32.36 -18 29.72 -18 27 C-9.09 27 -0.18 27 9 27 C9.20625 30.83625 9.4125 34.6725 9.625 38.625 C9.76156006 40.42251709 9.76156006 40.42251709 9.90087891 42.25634766 C9.98317916 45.41827039 9.89859594 47.95747137 9 51 C6.01828361 53.87669737 2.80509948 55.43620131 -1 57 C-1.76344727 57.34426025 -2.52689453 57.68852051 -3.31347656 58.04321289 C-11.53067662 61.57271372 -21.49601355 61.13739563 -29.875 58.4375 C-37.54443082 55.21837219 -42.86297379 50.48107565 -46.30859375 42.89453125 C-49.44835796 34.29122254 -49.59770254 22.01828901 -46.4375 13.375 C-42.6040944 5.57368335 -37.21018964 -0.00370399 -29 -3 C-19.97524481 -5.90994285 -8.01459762 -5.12335025 0 0 Z " fill="#2A2928" transform="translate(1746,526)"/>
<path d="M0 0 C8.93603041 4.82208433 13.56416748 10.67241242 16.640625 20.234375 C18.70680167 31.02440871 17.68734919 42.51778893 11.51953125 51.74609375 C6.90215097 57.50461149 1.32191067 61.00941921 -5.9375 62.4375 C-16.14004299 63.28079962 -24.47152957 62.0792131 -32.75 55.8125 C-38.54167407 50.44527486 -41.64810216 42.69307154 -42.17578125 34.93359375 C-42.46644998 24.37045764 -41.54283592 15.54956081 -34.6875 7 C-26.13617834 -1.9936314 -11.49170551 -4.70938544 0 0 Z M-28.8125 14.25 C-33.3182087 21.00856305 -33.66719551 28.51509158 -32.9375 36.4375 C-31.67241005 42.51843654 -28.56238287 47.32407477 -23.9375 51.4375 C-18.71205682 54.4938913 -13.86823924 55.34599534 -7.9375 54.4375 C-1.4671685 52.38139825 2.75393953 48.67296377 6.03125 42.66015625 C9.43101379 34.96346877 9.07698076 26.29233691 6.10546875 18.5078125 C3.7492596 13.83069322 0.59641456 10.54334538 -3.625 7.5 C-13.80948929 4.23327702 -21.6107884 6.60864903 -28.8125 14.25 Z " fill="#292827" transform="translate(65.9375,523.5625)"/>
<path d="M0 0 C14.85 0 29.7 0 45 0 C45 2.64 45 5.28 45 8 C33.12 8 21.24 8 9 8 C9 13.94 9 19.88 9 26 C20.22 26 31.44 26 43 26 C43 28.64 43 31.28 43 34 C31.78 34 20.56 34 9 34 C9 40.6 9 47.2 9 54 C21.54 54 34.08 54 47 54 C47 56.64 47 59.28 47 62 C31.49 62 15.98 62 0 62 C0 41.54 0 21.08 0 0 Z " fill="#2A2928" transform="translate(1130,523)"/>
<path d="M0 0 C2.97 0 5.94 0 9 0 C9.01458252 1.29623291 9.02916504 2.59246582 9.04418945 3.92797852 C9.10235099 8.75702908 9.17958291 13.58562207 9.26245117 18.41430664 C9.29561661 20.50049387 9.32367443 22.58676902 9.34643555 24.6730957 C9.38013569 27.67957879 9.43245968 30.68526225 9.48828125 33.69140625 C9.49467117 34.61772354 9.5010611 35.54404083 9.50764465 36.49842834 C9.6325437 42.05356044 10.2654484 46.11752999 13 51 C17.87997399 53.9662587 22.42290628 54.78890127 28 54 C32.27113256 52.7396658 34.35033335 51.95284442 36.875 48.25 C39.04683035 41.97582342 39.17828669 35.57476008 39.31640625 29.00390625 C39.33718735 28.17036118 39.35796844 27.3368161 39.37937927 26.47801208 C39.44427856 23.83958439 39.50347978 21.20106509 39.5625 18.5625 C39.60574206 16.76366276 39.64935808 14.96483446 39.69335938 13.16601562 C39.79989799 8.7774354 39.90132975 4.3887639 40 0 C42.97 0 45.94 0 49 0 C49.0497947 5.65591174 49.08590496 11.31169313 49.10986328 16.96777344 C49.11986133 18.88804348 49.13346421 20.80829853 49.15087891 22.72851562 C49.17540192 25.50394411 49.18654531 28.27916965 49.1953125 31.0546875 C49.20563507 31.8998996 49.21595764 32.74511169 49.22659302 33.61593628 C49.22812309 41.92250627 48.70092465 50.54895369 43 57 C34.73024585 63.26187145 27.26551069 63.79646204 17 63 C12.08257863 61.8218678 8.28809047 60.18900659 4.5625 56.75 C0.394362 49.41407711 -0.42613641 43.45482562 -0.29296875 35.15625 C-0.28872391 34.14655151 -0.28447906 33.13685303 -0.28010559 32.09655762 C-0.26342214 28.89742443 -0.22578903 25.69894017 -0.1875 22.5 C-0.17243982 20.32032165 -0.15875375 18.14063335 -0.14648438 15.9609375 C-0.11355245 10.64037807 -0.06184181 5.32029875 0 0 Z " fill="#2A2928" transform="translate(1935,523)"/>
<path d="M0 0 C3.3 0 6.6 0 10 0 C15.94 16.5 21.88 33 28 50 C30.97783241 42.85320221 33.90394915 35.77643616 36.55078125 28.515625 C37.00628609 27.27591949 37.00628609 27.27591949 37.47099304 26.01116943 C38.42060506 23.42500116 39.36662539 20.83753721 40.3125 18.25 C40.96395295 16.47387038 41.61564393 14.69782804 42.26757812 12.921875 C43.8477949 8.61558356 45.42479692 4.3081278 47 0 C50.3 0 53.6 0 57 0 C52.78401386 12.31946668 48.15415797 24.44724883 43.33911133 36.54418945 C42.16877131 39.48455399 41.00297058 42.42668834 39.83789062 45.36914062 C39.0940044 47.24489258 38.34987331 49.12054744 37.60546875 50.99609375 C37.25759811 51.87301376 36.90972748 52.74993378 36.55131531 53.65342712 C36.23040421 54.45929764 35.9094931 55.26516815 35.57885742 56.09545898 C35.29717209 56.80363266 35.01548676 57.51180634 34.7252655 58.24143982 C34.1996732 59.51584993 33.61650116 60.76699768 33 62 C29.7 62 26.4 62 23 62 C20.14403199 54.65633022 17.29247144 47.31097088 14.44648075 39.96342945 C13.12475678 36.55152074 11.80153743 33.14020808 10.47485352 29.73022461 C9.1939625 26.43777812 7.91706141 23.14380979 6.64288139 19.8487606 C5.92051862 17.98378454 5.19406077 16.12039629 4.46754456 14.2570343 C4.02716354 13.1162291 3.58678253 11.97542389 3.13305664 10.80004883 C2.5501461 9.2978051 2.5501461 9.2978051 1.95545959 7.76521301 C1.06194671 5.1792811 0.46196854 2.69293578 0 0 Z " fill="#292827" transform="translate(1468,523)"/>
<path d="M0 0 C2.97 0 5.94 0 9 0 C9 17.82 9 35.64 9 54 C18.9 54 28.8 54 39 54 C39 56.64 39 59.28 39 62 C26.13 62 13.26 62 0 62 C0 41.54 0 21.08 0 0 Z " fill="#2A2928" transform="translate(491,523)"/>
<path d="M0 0 C3.61228979 2.64313887 6.10296754 5.28819368 6.91015625 9.83203125 C7.11544055 14.50001778 6.36023898 18.0281089 3.5625 21.875 C-1.54558433 25.65615667 -6.20889059 26.56706771 -12.4375 25.875 C-17.52522075 24.26388843 -20.93060478 22.68823883 -23.4375 17.875 C-24.15622422 13.43382676 -24.50619126 9.01238253 -22.44921875 4.8984375 C-16.6945218 -2.33502059 -8.36101484 -2.73633213 0 0 Z " fill="#801711" transform="translate(980.4375,704.125)"/>
<path d="M0 0 C2.97 0 5.94 0 9 0 C9 20.46 9 40.92 9 62 C6.03 62 3.06 62 0 62 C0 41.54 0 21.08 0 0 Z " fill="#2A2928" transform="translate(709,523)"/>
</svg>
