<?xml version="1.0" encoding="UTF-8"?>
<svg version="1.1" xmlns="http://www.w3.org/2000/svg" width="1890" height="836">
<path d="M0 0 C44.55 0 89.1 0 135 0 C135 34.98 135 69.96 135 106 C169.98 106 204.96 106 241 106 C241 150.55 241 195.1 241 241 C206.02 241 171.04 241 135 241 C135 275.98 135 310.96 135 347 C113.715 347.495 113.715 347.495 92 348 C102.02855995 375.45105816 112.17124557 402.84887273 122.5 430.1875 C131.57269391 454.20248645 140.57513714 478.24217167 149.5 502.3125 C151.67819393 508.18626894 153.8565432 514.05998025 156.03515625 519.93359375 C156.42624919 520.98806041 156.42624919 520.98806041 156.825243 522.06382942 C161.50388223 534.67711219 166.20861224 547.28046649 170.9375 559.875 C171.28012878 560.78757568 171.62275757 561.70015137 171.97576904 562.64038086 C173.79779135 567.49243956 175.62069838 572.34416545 177.44384766 577.19580078 C180.47917143 585.27420823 183.51127486 593.35382352 186.54296875 601.43359375 C186.83074062 602.20053118 187.1185125 602.96746861 187.41500473 603.75764656 C192.36002701 616.93707498 197.30120328 630.11794317 202.23977661 643.29978943 C205.17465766 651.13296955 208.11326775 658.96472244 211.05718994 666.79450989 C212.59220822 670.87965825 214.12339713 674.96623245 215.65325928 679.05331421 C216.33613396 680.87511263 217.02071161 682.69627374 217.70709229 684.51675415 C218.62561365 686.95352988 219.53821987 689.39243534 220.44921875 691.83203125 C220.71340103 692.52832642 220.97758331 693.22462158 221.24977112 693.9420166 C222.30549959 696.78633657 223 698.93694361 223 702 C159.31 702 95.62 702 30 702 C2 608.2 2 608.2 2 604 C-66.64 604 -135.28 604 -206 604 C-206.66 607.3 -207.32 610.6 -208 614 C-208.61155158 616.25664346 -209.25928742 618.50396474 -209.9519043 620.73706055 C-210.32957443 621.96341721 -210.70724457 623.18977386 -211.09635925 624.45329285 C-211.5055621 625.76446092 -211.91485095 627.07560216 -212.32421875 628.38671875 C-212.75344376 629.77450448 -213.18221091 631.16243189 -213.61054993 632.55049133 C-214.73620897 636.19419661 -215.86768118 639.83606972 -217.00054932 643.47753906 C-218.35262678 647.82725216 -219.69789345 652.17907496 -221.04417896 656.53058338 C-222.09740398 659.93438223 -223.15148768 663.33790413 -224.20890808 666.74040222 C-227.85328975 678.47982348 -231.42078501 690.23972218 -235 702 C-297.37 702 -359.74 702 -424 702 C-411.34794515 667.49439587 -411.34794515 667.49439587 -406.93359375 655.74609375 C-406.41569224 654.36531178 -405.8978785 652.98449689 -405.38014221 651.60365295 C-404.01653171 647.96773377 -402.6514919 644.33235297 -401.28607178 640.69711304 C-400.12006471 637.59221981 -398.95494721 634.48699302 -397.78977013 631.38178825 C-389.01130169 607.98821555 -380.20421498 584.60545877 -371.3883667 561.22595215 C-363.09112646 539.22134769 -354.81707884 517.20814352 -346.5625 495.1875 C-346.28320648 494.44243195 -346.00391296 493.69736389 -345.71615601 492.92971802 C-343.17315585 486.14560343 -340.63049526 479.36136161 -338.08816528 472.57699585 C-334.14217824 462.04691031 -330.1947114 451.51738063 -326.24609375 440.98828125 C-325.96775192 440.24606827 -325.6894101 439.50385529 -325.40263367 438.739151 C-323.15411745 432.74339251 -320.90551064 426.74766801 -318.6568985 420.7519455 C-316.68919146 415.50521936 -314.72152545 410.25847783 -312.75390625 405.01171875 C-312.47558456 404.26956619 -312.19726288 403.52741364 -311.9105072 402.76277161 C-307.96002185 392.22854896 -304.0111509 381.69372226 -300.06325912 371.15852737 C-289.00274379 341.64354617 -277.92843782 312.13391611 -266.80755615 282.64162064 C-257.66417529 258.39358157 -248.53674058 234.13964154 -239.4375 209.875 C-239.16047115 209.13625641 -238.88344231 208.39751282 -238.59801865 207.63638306 C-226.02503442 174.10597719 -213.50596081 140.55545255 -201 107 C-187.37514158 106.82122286 -173.7501396 106.65587294 -160.125 106.5 C-158.56859865 106.48218412 -158.56859865 106.48218412 -156.98075485 106.46400833 C-104.65164307 105.87080562 -52.33336732 105.93050018 0 106 C0 71.02 0 36.04 0 0 Z M-103 265 C-103.35900391 266.19181885 -103.71800781 267.3836377 -104.08789062 268.61157227 C-112.37370541 296.11245005 -120.6954012 323.6022356 -129.04882812 351.0826416 C-132.11565863 361.17183174 -135.18072205 371.26155899 -138.24588013 381.35125732 C-138.63292272 382.62529734 -138.63292272 382.62529734 -139.02778435 383.92507553 C-139.55218953 385.65128298 -140.07658959 387.37749199 -140.60098457 389.10370255 C-141.95137249 393.54879645 -143.30199376 397.99381928 -144.65301514 402.4387207 C-147.66053661 412.33364811 -150.66651744 422.22903859 -153.66797352 432.12580776 C-154.95804661 436.37940562 -156.24907726 440.63270714 -157.54251099 444.88528442 C-158.74606119 448.84242931 -159.94704048 452.80034489 -161.14598274 456.75888824 C-161.58664471 458.21217097 -162.02826239 459.66516428 -162.47088432 461.11785126 C-163.07298983 463.09448622 -163.67169895 465.072118 -164.26953125 467.05004883 C-164.60573486 468.15745926 -164.94193848 469.26486969 -165.28833008 470.40583801 C-166.0881868 472.87312148 -166.0881868 472.87312148 -166 475 C-123.76 475 -81.52 475 -38 475 C-40.32749363 465.57678246 -40.32749363 465.57678246 -42.97924805 456.28198242 C-43.34293991 455.09333084 -43.70663177 453.90467926 -44.0813446 452.68000793 C-44.47476906 451.40515117 -44.86822827 450.13030513 -45.26171875 448.85546875 C-45.6850529 447.47544733 -46.10808337 446.09533272 -46.53083801 444.71513367 C-47.43781059 441.75591623 -48.34659246 438.79726324 -49.25683594 435.83905029 C-51.47609623 428.62602592 -53.68551315 421.40998267 -55.89622879 414.19433594 C-56.67465108 411.65397362 -57.45344072 409.11372412 -58.23226929 406.57348633 C-63.50565582 389.36964544 -68.73744159 372.15322924 -73.9637146 354.93502808 C-75.49046293 349.90556614 -77.01917796 344.87670318 -78.5480957 339.84790039 C-82.54651813 326.69406701 -86.54473257 313.54032899 -90.49249268 300.3711853 C-91.81855536 295.94796654 -93.14944691 291.52620826 -94.48071289 287.10455322 C-95.34894015 284.21182526 -96.20882409 281.31670684 -97.06835938 278.42138672 C-97.57377481 276.74172833 -98.07960228 275.06219384 -98.5859375 273.3828125 C-98.80555145 272.63292053 -99.02516541 271.88302856 -99.25143433 271.1104126 C-99.77567501 269.38800007 -100.37966799 267.69018384 -101 266 C-101.66 265.67 -102.32 265.34 -103 265 Z " fill="#811812" transform="translate(1649,0)"/>
<path d="M0 0 C31.68 0 63.36 0 96 0 C99.16946024 7.60670457 102.2613417 15.17654111 105.1328125 22.890625 C105.71023193 24.43324005 105.71023193 24.43324005 106.29931641 26.00701904 C107.57656806 29.420593 108.85073761 32.83530917 110.125 36.25 C111.04776799 38.71754048 111.9707389 41.18500393 112.89404297 43.65234375 C114.37053708 47.59840865 115.8468093 51.54455593 117.322052 55.49108887 C121.02124114 65.38692244 124.72727747 75.28017311 128.4375 85.171875 C128.84480189 86.25778049 128.84480189 86.25778049 129.26033211 87.36562347 C130.65053463 91.07194509 132.04083816 94.77822879 133.43118286 98.48449707 C136.00726691 105.35177495 138.58241783 112.21940276 141.15765572 119.08699799 C142.6101125 122.96035624 144.06262759 126.83369263 145.51513672 130.70703125 C146.096741 132.25797516 146.67834501 133.80891917 147.25994873 135.35986328 C147.69112125 136.50965668 147.69112125 136.50965668 148.13100433 137.68267822 C148.9967804 139.99141439 149.86255646 142.30015055 150.72833252 144.60888672 C151.01260196 145.36693761 151.2968714 146.1249885 151.58975506 146.90601063 C152.16268504 148.43382582 152.73561252 149.96164196 153.30853748 151.48945904 C154.73577901 155.29546977 156.16306393 159.10146422 157.59043884 162.90742493 C160.1256163 169.66736309 162.66051685 176.42740422 165.19372463 183.18808079 C166.57685125 186.87937409 167.9602332 190.57057167 169.34375 194.26171875 C169.61610537 194.98836416 169.88846073 195.71500957 170.16906929 196.46367455 C173.86209595 206.3152037 177.56681595 216.16226193 181.28117371 226.00576782 C183.27325009 231.28503691 185.26226716 236.56545697 187.25059223 241.84613991 C188.85422689 246.10419451 190.46214882 250.3605971 192.0733242 254.61580372 C192.82041419 256.59121999 193.56526299 258.56746317 194.30908203 260.54411316 C195.21226315 262.94423886 196.11904427 265.34301405 197.0300293 267.7401886 C197.42448242 268.79183701 197.81893555 269.84348541 198.2253418 270.92700195 C198.57026169 271.8401265 198.91518158 272.75325104 199.27055359 273.69404602 C200 276 200 276 200 279 C200.66 279 201.32 279 202 279 C202.26012878 278.09569748 202.26012878 278.09569748 202.5255127 277.17312622 C204.35484573 270.93123066 206.44489197 264.8346461 208.71875 258.7421875 C209.08428482 257.7554303 209.44981964 256.7686731 209.82643127 255.75201416 C211.04769576 252.45845623 212.27372024 249.16669361 213.5 245.875 C214.38481314 243.4933747 215.26949363 241.11170012 216.15405273 238.72998047 C228.31026079 206.0262764 240.59400522 173.37002787 252.86090088 140.70773315 C256.81669091 130.17488891 260.77151264 119.64168212 264.7245369 109.10779953 C265.55848093 106.88570903 266.39261473 104.66368982 267.22677612 102.44168091 C273.6650579 85.28985914 280.07458304 68.12770348 286.44140625 50.94921875 C287.05381404 49.29738225 287.66622551 47.64554712 288.27864075 45.99371338 C290.92546638 38.85331532 293.57043925 31.71224822 296.20832348 24.56854153 C297.27510441 21.68099845 298.34400333 18.79424256 299.41338921 15.90766335 C299.91018144 14.56504095 300.40597141 13.22204723 300.90071297 11.87866783 C301.57407267 10.05044056 302.25104101 8.22354357 302.92822266 6.39672852 C303.30645172 5.37257339 303.68468079 4.34841827 304.07437134 3.29322815 C305 1 305 1 306 0 C308.98298214 -0.0952822 311.94276345 -0.12552175 314.92602539 -0.11352539 C315.86251419 -0.11367142 316.79900299 -0.11381744 317.76387024 -0.1139679 C320.87515539 -0.11326837 323.98638149 -0.10547415 327.09765625 -0.09765625 C329.24857043 -0.09579221 331.39948503 -0.09436824 333.55039978 -0.09336853 C339.22381758 -0.08954225 344.89720995 -0.07971102 350.57061768 -0.06866455 C356.35501766 -0.0584528 362.13942173 -0.05387142 367.92382812 -0.04882812 C379.28256328 -0.03808885 390.64127953 -0.02101111 402 0 C407.57739258 14.87304687 413.15478516 29.74609375 418.73217773 44.61914062 C419.13404092 45.69077548 419.13404092 45.69077548 419.54402256 46.78405952 C420.06834245 48.18224632 420.59266178 49.58043332 421.11698055 50.97862053 C422.40337779 54.40902057 423.68978497 57.83941687 424.97621155 61.26980591 C427.43321211 67.8216817 429.89011451 74.37359426 432.34670734 80.92562294 C433.83916097 84.90616327 435.33167477 88.88668104 436.82421875 92.8671875 C437.12168943 93.66052364 437.41916012 94.45385979 437.72564507 95.27123642 C441.81021431 106.16419914 445.89779835 117.05602584 449.98774147 127.94697189 C452.5133712 134.67271466 455.03807053 141.39880665 457.5625 148.125 C457.83848904 148.8603019 458.11447807 149.59560379 458.39883041 150.35318756 C465.00282363 167.94882275 471.58578299 185.55205348 478.125 203.171875 C478.56476323 204.35669024 478.56476323 204.35669024 479.01341057 205.56544113 C481.83549893 213.16942426 484.65566968 220.77411154 487.47017956 228.38090324 C488.49296449 231.14464091 489.51664887 233.90804446 490.54080009 236.67127609 C491.03331628 238.00017639 491.52561523 239.32915722 492.01768684 240.6582222 C494.61908419 247.6805744 497.25148612 254.68881541 499.96435547 261.66894531 C500.43320663 262.87656525 500.9020578 264.08418518 501.38511658 265.32839966 C502.26930416 267.59699463 503.15817288 269.86377269 504.05250549 272.12838745 C504.44179733 273.1251651 504.83108917 274.12194275 505.23217773 275.14892578 C505.57514389 276.01800568 505.91811005 276.88708557 506.27146912 277.78250122 C507 280 507 280 507 283 C476.64 283 446.28 283 415 283 C402 240 402 240 402 237 C353.49 237.495 353.49 237.495 304 238 C299.71 252.19 295.42 266.38 291 281 C290.67 281.66 290.34 282.32 290 283 C230.6 283 171.2 283 110 283 C106.62404802 273.9974614 106.62404802 273.9974614 105.6496582 270.81884766 C105.42965652 270.10516022 105.20965485 269.39147278 104.98298645 268.65615845 C104.75785873 267.91626678 104.53273102 267.17637512 104.30078125 266.4140625 C103.94091377 265.23957047 103.94091377 265.23957047 103.57377625 264.04135132 C103.07258707 262.40311382 102.57266678 260.76448762 102.07397461 259.12548828 C101.30786051 256.6097651 100.5360075 254.09585047 99.76367188 251.58203125 C99.27569838 249.98447982 98.7880561 248.38682717 98.30078125 246.7890625 C98.06958084 246.03702545 97.83838043 245.2849884 97.60017395 244.51016235 C96 239.22977584 96 239.22977584 96 237 C63.66 237 31.32 237 -2 237 C-2.66 240.3 -3.32 243.6 -4 247 C-7.63 258.88 -11.26 270.76 -15 283 C-44.7 283 -74.4 283 -105 283 C-101.6246682 271.748894 -101.6246682 271.748894 -100.25195312 268.05029297 C-99.78070763 266.77384918 -99.78070763 266.77384918 -99.29994202 265.47161865 C-98.96377365 264.57090637 -98.62760529 263.67019409 -98.28125 262.7421875 C-97.91571518 261.7554303 -97.55018036 260.7686731 -97.17356873 259.75201416 C-95.95230424 256.45845623 -94.72627976 253.16669361 -93.5 249.875 C-92.61518686 247.4933747 -91.73050637 245.11170012 -90.84594727 242.72998047 C-78.68973921 210.0262764 -66.40599478 177.37002787 -54.13909912 144.70773315 C-50.18340618 134.17514742 -46.22844287 123.64228848 -42.27566528 113.10860825 C-41.7183809 111.62351334 -41.16106904 110.13842875 -40.60372925 108.65335464 C-30.63489481 82.08975126 -20.73487535 55.50085776 -10.87380791 28.89706707 C-9.80994834 26.02701053 -8.74570985 23.15709455 -7.68148804 20.28717232 C-6.95428332 18.32534679 -6.22784059 16.36324036 -5.50146484 14.40110779 C-5.06713135 13.22951614 -4.63279785 12.0579245 -4.18530273 10.85083008 C-3.80929428 9.8355574 -3.43328583 8.82028473 -3.04588318 7.77424622 C-2.06407436 5.16995976 -1.03365815 2.58414538 0 0 Z M47 77 C41.40318893 93.1990397 36.49985114 109.61024437 31.54992676 126.01501465 C30.64866679 128.99949081 29.74470818 131.9831465 28.84068108 134.96678543 C27.95603817 137.88711157 27.07258418 140.80779629 26.18951797 143.72859955 C25.77440202 145.10148026 25.35905465 146.47429103 24.94344711 147.84702301 C24.35946361 149.77691181 23.77712822 151.70729909 23.19482422 153.63769531 C22.86650604 154.72479797 22.53818787 155.81190063 22.19992065 156.9319458 C20.42687405 162.94305135 18.72171665 168.97399171 17 175 C36.8 175 56.6 175 77 175 C75.74680605 169.36062724 74.4925088 164.02284699 72.83276367 158.53100586 C72.62592453 157.84338165 72.41908539 157.15575745 72.20597839 156.44729614 C71.5297771 154.20218563 70.84894775 151.95850925 70.16796875 149.71484375 C69.68929618 148.12943854 69.21089243 146.54395214 68.73274231 144.95838928 C67.73192321 141.64198806 66.72900981 138.32623066 65.72436523 135.01098633 C64.45093885 130.80877025 63.18095829 126.60552395 61.91236401 122.40184689 C60.68619791 118.33917019 59.45845379 114.27697096 58.23046875 110.21484375 C58.00321798 109.46279097 57.77596722 108.71073818 57.54183006 107.93589592 C54.41860983 97.60567918 51.23598098 87.29545455 48 77 C47.67 77 47.34 77 47 77 Z M352 77 C348.95622764 87.00644067 345.91330776 97.01314016 342.87142658 107.02015591 C341.45839136 111.6685901 340.04508081 116.31694017 338.63110352 120.96508789 C337.26230625 125.46475456 335.89428117 129.96465538 334.52675438 134.46470833 C334.00922391 136.16725808 333.49143186 137.86972834 332.97335243 139.57211113 C331.30771112 145.04571685 329.64832428 150.52115292 328 156 C327.75790676 156.80465321 327.51581352 157.60930641 327.26638412 158.43834305 C326.55456247 160.81081962 325.84714189 163.18455914 325.14135742 165.55883789 C324.81673885 166.64061514 324.81673885 166.64061514 324.48556232 167.74424648 C323.38040864 171.31104591 323.38040864 171.31104591 323 175 C342.8 175 362.6 175 383 175 C377.07045166 154.47232502 371.0592321 133.97368695 364.88598633 113.51806641 C363.98674866 110.53694062 363.09227048 107.55444229 362.20141602 104.57080078 C361.10209557 100.8890502 359.99533094 97.20961976 358.88294792 93.5317955 C358.46606956 92.14904195 358.05181725 90.76549376 357.64029121 89.38113785 C357.07415039 87.47864941 356.49744089 85.57931543 355.92016602 83.68017578 C355.59645523 82.60341583 355.27274445 81.52665588 354.93922424 80.41726685 C354.2516168 77.84591722 354.2516168 77.84591722 352 77 Z " fill="#801711" transform="translate(414,56)"/>
<path d="M0 0 C44.55 0 89.1 0 135 0 C135 34.98 135 69.96 135 106 C169.98 106 204.96 106 241 106 C241 150.55 241 195.1 241 241 C206.02 241 171.04 241 135 241 C135 275.98 135 310.96 135 347 C83.21365871 347 83.21365871 347 66.13671875 346.78125 C64.41524527 346.76115598 62.69376895 346.74130286 60.97229004 346.72167969 C54.87732608 346.65064122 48.78241521 346.57510421 42.6875 346.5 C28.930625 346.335 15.17375 346.17 1 346 C1 311.02 1 276.04 1 240 C-33.98 240 -68.96 240 -105 240 C-105.33 195.78 -105.66 151.56 -106 106 C-71.02 106 -36.04 106 0 106 C0 71.02 0 36.04 0 0 Z " fill="#A30505" transform="translate(1649,0)"/>
<path d="M0 0 C27.06 0 54.12 0 82 0 C91.16284642 12.59891383 91.16284642 12.59891383 95.2421875 18.80078125 C95.69546417 19.48448288 96.14874084 20.16818451 96.61575317 20.87260437 C98.50936791 23.72898608 100.39734687 26.58907623 102.28564453 29.44897461 C107.58250193 37.46417408 112.94402864 45.40792972 118.5615387 53.20248413 C121.92701169 57.87550415 125.14841595 62.62679561 128.3125 67.4375 C134.17515922 76.28707662 140.10411413 85.08976629 146.0625 93.875 C146.72282227 94.84886658 146.72282227 94.84886658 147.39648438 95.84240723 C149.66549721 99.18874702 151.93507177 102.53470519 154.20507812 105.88037109 C158.45691426 112.14706988 162.70643873 118.41533464 166.95480347 124.68438721 C168.26836846 126.62238939 169.58252023 128.55999262 170.89672852 130.49755859 C171.71893883 131.71059431 172.54112429 132.92364687 173.36328125 134.13671875 C174.06751221 135.17530029 174.77174316 136.21388184 175.49731445 137.28393555 C179.01697442 142.51003489 182.50494324 147.75741487 186 153 C186.495 77.265 186.495 77.265 187 0 C214.39 0 241.78 0 270 0 C270 93.39 270 186.78 270 283 C242.28 283 214.56 283 186 283 C183.36 279.04 180.72 275.08 178 271 C176.31163769 268.49131733 174.62160219 265.98407562 172.92578125 263.48046875 C172.48391983 262.82740753 172.04205841 262.17434631 171.58680725 261.50149536 C170.16244417 259.39655513 168.73748712 257.29201781 167.3125 255.1875 C166.29700919 253.68711243 165.28154751 252.18670516 164.26611328 250.6862793 C161.17808703 246.12372689 158.08918396 241.56176861 155 237 C154.53410461 236.31200317 154.06820923 235.62400635 153.5881958 234.91516113 C148.35524281 227.18775198 143.12097382 219.46123487 137.88597107 211.73521423 C134.84297523 207.24423623 131.80028564 202.75305088 128.7578125 198.26171875 C128.32360489 197.62074249 127.88939728 196.97976624 127.44203186 196.31936646 C125.26230561 193.1016332 123.08264621 189.88385469 120.90307617 186.66601562 C116.84641106 180.67704962 112.78916992 174.68847647 108.72982788 168.70132446 C106.83706833 165.90960161 104.94464545 163.11765062 103.05224609 160.32568359 C102.16032334 159.00997786 101.26824033 157.69438075 100.37597656 156.37890625 C99.12913479 154.54065064 97.88287573 152.70200113 96.63671875 150.86328125 C95.93248779 149.82469971 95.22825684 148.78611816 94.50268555 147.71606445 C90.98302558 142.48996511 87.49505676 137.24258513 84 132 C83.67 181.83 83.34 231.66 83 283 C55.61 283 28.22 283 0 283 C0 189.61 0 96.22 0 0 Z " fill="#801711" transform="translate(14,56)"/>
<path d="M0 0 C0.83089142 0.00149048 1.66178284 0.00298096 2.51785278 0.0045166 C15.30348848 0.04566994 27.78079893 0.55872783 40.3125 3.3125 C41.00230957 3.46235352 41.69211914 3.61220703 42.40283203 3.76660156 C60.57819776 7.86748648 77.15523976 15.11472215 91.3125 27.3125 C91.97507812 27.83070312 92.63765625 28.34890625 93.3203125 28.8828125 C111.15704816 43.25329994 122.78878459 66.82261395 129.3125 88.3125 C125.09915085 89.78301125 120.91260188 90.93492355 116.56030273 91.91650391 C115.59080185 92.13639732 115.59080185 92.13639732 114.60171509 92.36073303 C112.48389107 92.84008407 110.36506801 93.31482399 108.24609375 93.7890625 C106.7644642 94.12238969 105.28286164 94.45583683 103.80128479 94.78939819 C100.70434934 95.48578967 97.60687181 96.17970806 94.5090332 96.87207031 C90.54450303 97.75849787 86.58175987 98.65265039 82.61942959 99.54885292 C79.56360065 100.23884356 76.50668931 100.92393734 73.44944954 101.60764694 C71.98787617 101.93528074 70.52668224 102.26461217 69.06588554 102.59569168 C67.02346002 103.05798802 64.97962586 103.51346491 62.93530273 103.96728516 C61.19373146 104.35794662 61.19373146 104.35794662 59.41697693 104.75650024 C56.62685223 105.25620074 54.13648702 105.4263163 51.3125 105.3125 C51.02117187 104.55066406 50.72984375 103.78882813 50.4296875 103.00390625 C44.40044585 87.81704286 36.64525178 77.97509462 21.875 70.7578125 C15.26231841 68.07503598 9.18648778 66.94234923 2.0625 67 C1.32306152 67.00563965 0.58362305 67.0112793 -0.17822266 67.01708984 C-13.45461879 67.30789791 -26.1543324 71.7793324 -35.6875 81.3125 C-55.50298909 105.2726631 -55.62700734 137.52865901 -53.171875 167.15844727 C-51.38813067 184.979168 -47.33963164 202.69855327 -33.6875 215.3125 C-22.36291179 224.55222678 -6.89434848 226.37548021 7.1953125 225.0390625 C20.29730582 223.22599293 31.03821637 218.47165073 39.2109375 207.84375 C46.72560557 196.68660089 50.97602014 184.22663971 54.3125 171.3125 C62.99626224 172.77329423 71.32531249 175.30422796 79.7265625 177.8828125 C81.19188022 178.32877386 82.65732646 178.77431315 84.12289429 179.2194519 C87.94796357 180.38246547 91.77127956 181.55113978 95.59423828 182.72106934 C99.50838158 183.91778256 103.42418427 185.10904036 107.33984375 186.30078125 C114.99901479 188.63273519 122.65633919 190.97068203 130.3125 193.3125 C131.41966164 197.9447852 130.8061422 201.11600423 129.3125 205.5625 C128.96964966 206.60760742 128.96964966 206.60760742 128.61987305 207.67382812 C118.08893345 239.06675896 100.33036294 264.80977813 70.3125 280.3125 C49.54738015 290.45741649 26.62086278 292.72982048 3.8125 292.625 C2.98478088 292.62317719 2.15706177 292.62135437 1.30426025 292.61947632 C-25.36611173 292.52102971 -51.61400725 289.45641829 -75.6875 277.3125 C-76.73164062 276.79042969 -77.77578125 276.26835937 -78.8515625 275.73046875 C-106.33796488 260.82689173 -126.42887271 231.69771654 -135.59765625 202.27734375 C-146.11542637 165.11330499 -146.47100043 123.17886025 -134.6875 86.3125 C-134.46723145 85.61866211 -134.24696289 84.92482422 -134.02001953 84.20996094 C-124.74134186 55.76074008 -105.39536186 31.0626346 -78.74511719 17.00341797 C-67.51239565 11.3540683 -55.95689285 6.8540195 -43.6875 4.0625 C-42.69387451 3.83578613 -42.69387451 3.83578613 -41.68017578 3.60449219 C-27.83796202 0.6906881 -14.09422597 -0.06279387 0 0 Z " fill="#801711" transform="translate(1073.6875,51.6875)"/>
<path d="M0 0 C163.77174735 0 163.77174735 0 184.46484375 20.14453125 C197.34645127 34.65370706 203.69762642 52.93424291 203.1875 72.3828125 C201.81232304 91.57799084 196.27890521 107.95385465 182.09375 121.45703125 C171.45468872 130.59739057 158.13324647 135.55793335 144.58984375 138.38671875 C142.08429758 138.74065598 142.08429758 138.74065598 141 140 C142.19882812 140.78310547 142.19882812 140.78310547 143.421875 141.58203125 C171.01759393 159.92409593 186.14562686 187.96490048 203.109375 215.671875 C207.10848185 222.19465165 211.17986616 228.66976117 215.28344727 235.12719727 C216.52578341 237.08262321 217.76393956 239.04060327 219 241 C219.60199219 241.95261719 220.20398438 242.90523437 220.82421875 243.88671875 C222 246 222 246 222 248 C214.29130606 248.51368702 206.58671529 248.90242233 198.86513329 249.13986778 C195.2766018 249.25398419 191.69988155 249.40790337 188.11816406 249.65966797 C165.27629386 251.22132123 165.27629386 251.22132123 158.50579834 246.12112427 C154.03446137 241.0624011 151.2801775 235.17865068 148.49798584 229.07702637 C146.05880541 224.06668361 142.89049818 219.60542712 139.7109375 215.04296875 C138.48723246 213.23400994 137.26587581 211.4234603 136.046875 209.61132812 C135.44166016 208.71744385 134.83644531 207.82355957 134.21289062 206.90258789 C132.36485863 204.1725183 130.52196944 201.43903037 128.6796875 198.70507812 C122.98539817 190.26757835 117.25067252 181.86016898 111.3984375 173.53125 C110.92127289 172.84963303 110.44410828 172.16801605 109.95248413 171.46574402 C101.38083606 159.34106288 93.63638738 151.39091621 79 147 C65.14 146.01 65.14 146.01 51 145 C51 178.99 51 212.98 51 248 C34.17 248 17.34 248 0 248 C0 166.16 0 84.32 0 0 Z M51 43 C51 63.46 51 83.92 51 105 C98.1031883 108.82067101 98.1031883 108.82067101 142 96 C148.99275004 88.71709436 150.4206151 81.34002604 150.36132812 71.47509766 C150.18259379 64.33034657 149.03477169 58.53485823 144.26953125 52.984375 C135.70512882 44.84733796 126.2564417 42.86585305 114.68774414 42.88647461 C113.6474556 42.88625557 113.6474556 42.88625557 112.58615112 42.8860321 C110.31911977 42.8867226 108.05217305 42.89447408 105.78515625 42.90234375 C104.20332382 42.904211 102.62149081 42.90563345 101.03965759 42.90663147 C96.89523699 42.91043245 92.75085195 42.92024186 88.60644531 42.93133545 C83.6236825 42.9434098 78.64090774 42.94796334 73.65813446 42.95378876 C66.10539831 42.96345509 58.55274005 42.9826285 51 43 Z " fill="#686868" transform="translate(275,451)"/>
<path d="M0 0 C0.71761505 0.00215515 1.4352301 0.0043103 2.17459106 0.00653076 C31.62751694 0.14785057 60.6395011 6.36170035 82.27539062 27.75927734 C94.4107794 40.55872709 102.76308533 56.78125365 104.8125 74.3125 C98.0334945 75.62311577 91.25231604 76.92198975 84.46948242 78.21264648 C82.16134499 78.65328943 79.85372239 79.09663798 77.54663086 79.54272461 C74.23422109 80.18271094 70.92009384 80.81300828 67.60546875 81.44140625 C66.5710112 81.64343155 65.53655365 81.84545685 64.4707489 82.05360413 C63.02959465 82.32399757 63.02959465 82.32399757 61.55932617 82.59985352 C60.71327316 82.76195816 59.86722015 82.92406281 58.99552917 83.09107971 C56.8125 83.3125 56.8125 83.3125 53.8125 82.3125 C52.70703125 79.9765625 52.70703125 79.9765625 51.625 76.9375 C46.41309097 63.82970483 38.21901502 55.40673166 25.56811523 49.48706055 C17.04983575 45.85620712 8.82760521 44.78423184 -0.375 44.875 C-2.0142041 44.88744751 -2.0142041 44.88744751 -3.68652344 44.90014648 C-21.92630082 45.2782357 -37.38879392 50.80767482 -50.75 63.64453125 C-54.59201488 67.84981356 -57.48843711 72.31108687 -60.1875 77.3125 C-60.64769531 78.14007812 -61.10789063 78.96765625 -61.58203125 79.8203125 C-74.57053278 105.48339407 -73.08988355 141.34928778 -64.375 168 C-58.65245375 184.3703362 -47.90739913 197.63005502 -32.5625 206 C-12.13515456 215.43281089 9.45119907 214.33282622 30.1875 206.734375 C37.88516859 203.78645741 44.89950646 200.39794136 51.7109375 195.6953125 C53.8125 194.3125 53.8125 194.3125 56.8125 193.3125 C56.8125 183.0825 56.8125 172.8525 56.8125 162.3125 C38.0025 162.3125 19.1925 162.3125 -0.1875 162.3125 C-0.1875 148.1225 -0.1875 133.9325 -0.1875 119.3125 C35.4525 119.3125 71.0925 119.3125 107.8125 119.3125 C108.01875 135.626875 108.225 151.94125 108.4375 168.75 C108.52854004 173.88876709 108.61958008 179.02753418 108.71337891 184.32202148 C108.75854492 190.62902832 108.75854492 190.62902832 108.76693726 193.58778381 C108.78222825 195.64094248 108.81726747 197.69401489 108.86825562 199.74659729 C109.27665152 217.06250151 109.27665152 217.06250151 105.65882874 222.62210083 C103.14457148 224.92897718 100.77395907 226.63637128 97.8125 228.3125 C96.49038839 229.22468811 95.17065826 230.14035966 93.85546875 231.0625 C92.57982848 231.82857343 91.29431783 232.57842375 90 233.3125 C89.28626221 233.72274414 88.57252441 234.13298828 87.8371582 234.55566406 C51.7647636 254.73483339 9.48237537 262.75015802 -31.1875 254.3125 C-31.86312988 254.17328125 -32.53875977 254.0340625 -33.23486328 253.890625 C-53.22688847 249.57989134 -70.90863757 239.78949335 -86.1875 226.3125 C-86.81011719 225.77367187 -87.43273437 225.23484375 -88.07421875 224.6796875 C-107.74696779 206.4285124 -120.87781144 174.60322573 -122.3082428 148.0730896 C-122.38495382 145.50684873 -122.4301599 142.94220635 -122.4609375 140.375 C-122.47346558 139.4253688 -122.48599365 138.47573761 -122.49890137 137.49732971 C-122.91970394 97.990054 -122.91970394 97.990054 -117.1875 81.3125 C-116.95224609 80.60834961 -116.71699219 79.90419922 -116.47460938 79.17871094 C-114.95725861 74.76668964 -113.15845889 70.54497682 -111.1875 66.3125 C-110.65253906 65.12398438 -110.11757812 63.93546875 -109.56640625 62.7109375 C-97.4229071 36.9655975 -75.65902235 17.78329527 -49.3046875 7.40234375 C-33.16688452 1.76017955 -17.00406795 -0.09262743 0 0 Z " fill="#686868" transform="translate(122.1875,446.6875)"/>
<path d="M0 0 C146.49640288 0 146.49640288 0 170 22 C170.88945313 22.79921875 171.77890625 23.5984375 172.6953125 24.421875 C196.10109104 46.45851329 206.14990661 79.07619671 207.1640625 110.55322266 C208.17009609 149.15476009 208.17009609 149.15476009 204 166 C203.70198486 167.22589844 203.70198486 167.22589844 203.39794922 168.4765625 C200.38905711 180.41296147 196.07897968 191.30426534 190 202 C189.4225 203.01707031 188.845 204.03414062 188.25 205.08203125 C184.22392948 211.74555074 179.45153091 217.45591338 174 223 C173.31292969 223.69996094 172.62585938 224.39992188 171.91796875 225.12109375 C163.55297244 233.08258374 153.50336889 238.34927384 142.75 242.3125 C142.14478516 242.54275879 141.53957031 242.77301758 140.91601562 243.01025391 C100.65120936 256.88308781 21.31447182 248 0 248 C0 166.16 0 84.32 0 0 Z M51 43 C51 96.79 51 150.58 51 206 C95.2925028 209.49445446 95.2925028 209.49445446 137.07421875 193.93359375 C153.3472252 177.59457105 155.25388037 150.97078215 155.3293457 129.12573242 C155.32550608 127.66714919 155.31985867 126.20856972 155.3125 124.75 C155.30976578 123.61445175 155.30976578 123.61445175 155.30697632 122.45596313 C155.22019889 100.94957591 153.55849979 80.24536762 141 62 C139.9171875 60.4221875 139.9171875 60.4221875 138.8125 58.8125 C126.89466883 46.89466883 113.46794268 44.93740502 97 43 C81.82 43 66.64 43 51 43 Z " fill="#686868" transform="translate(772,451)"/>
<path d="M0 0 C60.72 0 121.44 0 184 0 C184 14.19 184 28.38 184 43 C140.11 43 96.22 43 51 43 C51 60.82 51 78.64 51 97 C91.92 97 132.84 97 175 97 C175 110.86 175 124.72 175 139 C134.08 139 93.16 139 51 139 C51 161.11 51 183.22 51 206 C96.54 206 142.08 206 189 206 C189 219.86 189 233.72 189 248 C126.63 248 64.26 248 0 248 C0 166.16 0 84.32 0 0 Z " fill="#686868" transform="translate(1020,451)"/>
<path d="M0 0 C44.55 0 89.1 0 135 0 C135 34.98 135 69.96 135 106 C169.98 106 204.96 106 241 106 C241 150.55 241 195.1 241 241 C206.02 241 171.04 241 135 241 C135 275.98 135 310.96 135 347 C83.21365871 347 83.21365871 347 66.13671875 346.78125 C64.41524527 346.76115598 62.69376895 346.74130286 60.97229004 346.72167969 C54.87732608 346.65064122 48.78241521 346.57510421 42.6875 346.5 C28.930625 346.335 15.17375 346.17 1 346 C1 311.02 1 276.04 1 240 C-33.98 240 -68.96 240 -105 240 C-105.33 195.78 -105.66 151.56 -106 106 C-71.02 106 -36.04 106 0 106 C0 71.02 0 36.04 0 0 Z M23 22 C23 57.31 23 92.62 23 129 C-11.98 129 -46.96 129 -83 129 C-83 158.37 -83 187.74 -83 218 C-48.02 218 -13.04 218 23 218 C23 252.98 23 287.96 23 324 C52.37 324 81.74 324 112 324 C112 289.02 112 254.04 112 218 C147.31 218 182.62 218 219 218 C219 188.63 219 159.26 219 129 C183.69 129 148.38 129 112 129 C112 93.69 112 58.38 112 22 C82.63 22 53.26 22 23 22 Z " fill="#FDFCFC" transform="translate(1649,0)"/>
<path d="M0 0 C17.82 0 35.64 0 54 0 C58.49927979 8.99855957 58.49927979 8.99855957 59.88305664 12.51855469 C60.20620346 13.33498444 60.52935028 14.15141418 60.86228943 14.99258423 C61.38098351 16.31883316 61.38098351 16.31883316 61.91015625 17.671875 C62.29716202 18.65199554 62.68416779 19.63211609 63.082901 20.64193726 C63.9468496 22.83070475 64.80920937 25.02009986 65.67022705 27.21002197 C67.91584509 32.91970591 70.17286132 38.62488283 72.42887878 44.33046341 C73.29803748 46.52890502 74.16679165 48.72750622 75.03552246 50.92611694 C83.56053975 72.49609728 92.14136836 94.04394367 100.71915436 115.59297943 C102.12444029 119.12359379 103.5293866 122.65434314 104.93426514 126.18511963 C114.32162209 149.7758104 123.72096011 173.36133776 133.22265625 196.90625 C133.57214577 197.7724786 133.92163528 198.6387072 134.28171539 199.53118515 C137.5079683 207.52657083 140.73802703 215.52038693 143.98026752 223.50930405 C145.11612355 226.30946511 146.2494855 229.11063123 147.38235283 231.91200256 C148.14441651 233.79341578 148.91029047 235.67328425 149.67628479 237.55310059 C150.11979782 238.65013306 150.56331085 239.74716553 151.02026367 240.87744141 C151.40574875 241.82632233 151.79123383 242.77520325 152.18840027 243.75283813 C153 246 153 246 153 248 C134.52 248 116.04 248 97 248 C89.25 227.125 89.25 227.125 86.82910156 220.59814453 C86.18304135 218.85966386 85.53688847 217.12121762 84.890625 215.3828125 C84.40311768 214.0668811 84.40311768 214.0668811 83.90576172 212.72436523 C81.95265836 207.47485419 79.90893314 202.27923184 77.73822021 197.115448 C77 195 77 195 77 192 C28.49 192.495 28.49 192.495 -21 193 C-26.28 207.52 -31.56 222.04 -37 237 C-38.98 242.445 -38.98 242.445 -41 248 C-59.15 248 -77.3 248 -96 248 C-86.9848225 224.09018142 -77.75683405 200.2659038 -68.50390625 176.44726562 C-64.8914876 167.14728361 -61.28560747 157.84476701 -57.67944336 148.5423584 C-55.70325 143.44479402 -53.72660121 138.34740625 -51.75 133.25 C-50.95833117 131.20833417 -50.1666645 129.16666751 -49.375 127.125 C-44.62499999 114.87499999 -44.62499999 114.87499999 -43.43765259 111.81289673 C-42.64547441 109.76990875 -41.85329912 107.72691966 -41.06112671 105.68392944 C-39.08980982 100.59996964 -37.11844376 95.51602891 -35.14697266 90.43212891 C-31.4910899 81.00442783 -27.83566011 71.57655197 -24.1819458 62.14801025 C-22.48696432 57.77413751 -20.79170911 53.40037088 -19.09643555 49.02661133 C-18.30121547 46.97474324 -17.50612417 44.92282524 -16.71118164 42.87084961 C-16.1512854 41.42560913 -16.1512854 41.42560913 -15.58007812 39.95117188 C-15.25769165 39.11888062 -14.93530518 38.28658936 -14.60314941 37.42907715 C-9.76053201 24.94253764 -4.88039363 12.47211706 0 0 Z M26 61 C25.76133713 61.66001007 25.52267426 62.32002014 25.27677917 63.00003052 C22.49203243 70.70065007 19.7062984 78.40091213 16.91991806 86.1009407 C16.19140063 88.1142205 15.46296367 90.1275294 14.73452759 92.14083862 C8.81351358 108.50455034 2.88652886 124.8657976 -3.15356445 141.18603516 C-3.73690552 142.76650635 -3.73690552 142.76650635 -4.33203125 144.37890625 C-4.82280151 145.70257202 -4.82280151 145.70257202 -5.32348633 147.05297852 C-6.05470213 148.81389991 -6.05470213 148.81389991 -6 150 C15.78 150 37.56 150 60 150 C58.19206409 143.97354695 56.42551982 138.21838473 54.22851562 132.36645508 C53.96955002 131.67398178 53.71058441 130.98150848 53.44377136 130.26805115 C52.6011224 128.01733272 51.75380936 125.76840463 50.90625 123.51953125 C50.3121373 121.93642553 49.7182696 120.35322784 49.12463379 118.76994324 C47.88607001 115.46866211 46.64531961 112.1682145 45.40283203 108.8684082 C43.81583607 104.65344399 42.23319698 100.43686072 40.6520462 96.21970081 C39.42827561 92.95658527 38.20278851 89.69411661 36.97673035 86.43185997 C36.39268696 84.87757631 35.80903196 83.32314665 35.2257843 81.76856422 C34.40933097 79.59353959 33.5907116 77.41934244 32.77148438 75.24536133 C32.0755719 73.39531242 32.0755719 73.39531242 31.36560059 71.50788879 C29.98669514 67.96582311 28.5172104 64.48451328 27 61 C26.67 61 26.34 61 26 61 Z " fill="#686868" transform="translate(594,451)"/>
<path d="M0 0 C11.6325 -0.0928125 11.6325 -0.0928125 23.5 -0.1875 C25.93310547 -0.21481201 28.36621094 -0.24212402 30.87304688 -0.27026367 C32.82160955 -0.27903315 34.77017775 -0.286676 36.71875 -0.29296875 C38.21196777 -0.3159906 38.21196777 -0.3159906 39.73535156 -0.33947754 C47.06151844 -0.34220575 52.41506666 0.80015454 58.75 4.6875 C63.12245831 9.18141549 65.52677149 14.56036387 66.03515625 20.859375 C65.9227728 27.70227835 64.52238018 33.72388979 60 39 C56.19682394 41.97639866 52.63297862 43.67629182 48 45 C48.66 45.598125 49.32 46.19625 50 46.8125 C56.14571219 53.02687936 72 70.9957959 72 80 C65.01569697 81.82239843 57.78369336 82.95884497 51 80 C44.03157347 73.27908588 39.41980147 64.4014187 34.88671875 55.93261719 C32.76724849 52.63822319 31.39002613 50.98497897 28 49 C24.37 48.34 20.74 47.68 17 47 C17 57.89 17 68.78 17 80 C11.39 80 5.78 80 0 80 C0 53.6 0 27.2 0 0 Z M17 14 C17 20.27 17 26.54 17 33 C21.06321081 33.10795246 25.12355279 33.1873055 29.1875 33.25 C30.91323242 33.30027344 30.91323242 33.30027344 32.67382812 33.3515625 C33.78564453 33.36445312 34.89746094 33.37734375 36.04296875 33.390625 C37.57473755 33.4220459 37.57473755 33.4220459 39.13745117 33.45410156 C42.74876717 32.88121902 44.38934073 31.50385825 47 29 C48.55024464 25.89951072 48.28992015 23.42105782 48 20 C45.86320715 16.61060444 44.8225233 15.27417443 41 14 C39.15389468 13.91760831 37.30494836 13.89256641 35.45703125 13.90234375 C33.84731445 13.90717773 33.84731445 13.90717773 32.20507812 13.91210938 C31.08552734 13.92048828 29.96597656 13.92886719 28.8125 13.9375 C27.11577148 13.94426758 27.11577148 13.94426758 25.38476562 13.95117188 C22.58982124 13.96296489 19.79490401 13.98090043 17 14 Z " fill="#2A2928" transform="translate(726,755)"/>
<path d="M0 0 C11.6325 -0.0928125 11.6325 -0.0928125 23.5 -0.1875 C25.93310547 -0.21481201 28.36621094 -0.24212402 30.87304688 -0.27026367 C32.82160955 -0.27903315 34.77017775 -0.286676 36.71875 -0.29296875 C38.21196777 -0.3159906 38.21196777 -0.3159906 39.73535156 -0.33947754 C46.67700727 -0.34206256 52.66628216 0.27610859 58.2421875 4.83203125 C64.38405691 12.28161926 65.84842734 18.37992865 65 28 C63.9212925 33.71714974 61.47290366 37.18178435 56.91796875 40.74609375 C54.06166934 42.61345039 51.20093077 43.82414788 48 45 C48.825 45.928125 49.65 46.85625 50.5 47.8125 C56.70778035 55.09610177 62.05418203 62.88253863 67 71.0625 C67.39807861 71.71798828 67.79615723 72.37347656 68.20629883 73.04882812 C71 77.74959567 71 77.74959567 71 80 C64.25382545 81.56968901 57.56478389 82.7736882 51 80 C44.42578013 73.88503185 40.00124245 65.65582114 35.69726562 57.86254883 C32.83443115 53.03419236 30.56364212 49.4836379 25 48 C22.03 47.67 19.06 47.34 16 47 C16 57.89 16 68.78 16 80 C10.72 80 5.44 80 0 80 C0 53.6 0 27.2 0 0 Z M16 14 C16 20.27 16 26.54 16 33 C20.06290008 33.08095816 24.12418567 33.14048645 28.1875 33.1875 C29.33798828 33.21263672 30.48847656 33.23777344 31.67382812 33.26367188 C32.78564453 33.27333984 33.89746094 33.28300781 35.04296875 33.29296875 C36.57473755 33.31653442 36.57473755 33.31653442 38.13745117 33.34057617 C41.46892424 32.94420901 43.31161586 31.9750002 46 30 C47.74327413 27.06812987 48.0143242 25.35094284 47.875 21.9375 C46.87136778 18.56816325 45.69474555 17.20479181 43 15 C40.33821779 13.6691089 38.31260604 13.88731007 35.3359375 13.90234375 C33.65371094 13.90717773 33.65371094 13.90717773 31.9375 13.91210938 C30.1740625 13.92467773 30.1740625 13.92467773 28.375 13.9375 C27.19164062 13.94201172 26.00828125 13.94652344 24.7890625 13.95117188 C21.85935361 13.96298522 18.92967059 13.9809211 16 14 Z " fill="#2A2928" transform="translate(1573,755)"/>
<path d="M0 0 C5.61 0 11.22 0 17 0 C20.77768829 4.15106446 22.94756823 7.30638987 25.25 12.1875 C25.89153565 13.41894644 26.54015448 14.64672693 27.19555664 15.87084961 C28.52065634 18.35612244 29.81561757 20.85379619 31.09228516 23.36425781 C33.89013144 28.78922097 37.16459401 33.9151198 40.4375 39.0625 C41.50052839 40.76057421 42.56190198 42.45968627 43.62109375 44.16015625 C44.0586499 44.85761963 44.49620605 45.55508301 44.94702148 46.27368164 C46 48 46 48 47 50 C47.33 33.5 47.66 17 48 0 C52.95 0 57.9 0 63 0 C63 26.4 63 52.8 63 80 C46 80 46 80 41.98828125 76.21484375 C40.59326172 73.69921875 40.59326172 73.69921875 39.3125 70.9375 C38.28163552 69.01862367 37.24901601 67.10068938 36.21484375 65.18359375 C35.69905762 64.17538574 35.18327148 63.16717773 34.65185547 62.12841797 C31.81881816 56.76298196 28.57306154 51.65305298 25.375 46.5 C24.21379472 44.59518128 23.05478862 42.68901941 21.8984375 40.78125 C21.41036621 39.97751953 20.92229492 39.17378906 20.41943359 38.34570312 C18.94003717 35.90090766 17.47020154 33.45033591 16 31 C15.67 47.17 15.34 63.34 15 80 C10.05 80 5.1 80 0 80 C0 53.6 0 27.2 0 0 Z " fill="#2A2928" transform="translate(1317,755)"/>
<path d="M0 0 C6.909375 -0.0825 13.81875 -0.165 20.9375 -0.25 C23.10046631 -0.28641602 25.26343262 -0.32283203 27.49194336 -0.36035156 C29.2329001 -0.3720491 30.97386791 -0.38223839 32.71484375 -0.390625 C33.59724731 -0.41108887 34.47965088 -0.43155273 35.38879395 -0.45263672 C43.80865364 -0.45730469 51.1210878 2.29465295 57.3671875 8.046875 C67.1037076 19.69343014 68.05507097 34.51105512 67 49 C65.67825241 58.69651804 62.0330168 66.78366425 55.25 73.875 C47.72380278 78.7959751 40.75734207 80.60397937 31.8359375 80.390625 C30.6125769 80.38458252 30.6125769 80.38458252 29.36450195 80.37841797 C26.36776677 80.35776046 23.37135661 80.30191878 20.375 80.25 C13.65125 80.1675 6.9275 80.085 0 80 C0 53.6 0 27.2 0 0 Z M17 14 C17 31.16 17 48.32 17 66 C34.35866959 67.24741111 34.35866959 67.24741111 43 63 C49.77172803 56.22827197 49.91471621 47.0874621 50 38 C49.39506709 29.17566122 48.1436174 22.9311242 41.5625 16.6875 C34.43059958 11.99088265 25.0253773 14 17 14 Z " fill="#2A2928" transform="translate(1128,755)"/>
<path d="M0 0 C10.333125 -0.12375 10.333125 -0.12375 20.875 -0.25 C23.0288623 -0.28641602 25.18272461 -0.32283203 27.40185547 -0.36035156 C29.14028939 -0.3720518 30.87873442 -0.38224045 32.6171875 -0.390625 C33.4944751 -0.41108887 34.3717627 -0.43155273 35.27563477 -0.45263672 C43.43057428 -0.45715845 50.6500962 1.61390717 56.8125 7.125 C67.43139519 18.82081144 67.81151284 33.4642745 67.1953125 48.38916016 C66.44005354 58.48508427 62.56720204 66.93169183 55.08203125 73.74609375 C47.87176408 79.56172511 41.12691127 80.30100983 32.12890625 80.1953125 C31.31031128 80.19329834 30.49171631 80.19128418 29.64831543 80.18920898 C26.61965247 80.17882387 23.59107001 80.15090187 20.5625 80.125 C13.776875 80.08375 6.99125 80.0425 0 80 C0 53.6 0 27.2 0 0 Z M17 14 C17 31.16 17 48.32 17 66 C32.74222737 67.20920444 32.74222737 67.20920444 45.328125 61.11328125 C51.82803301 52.89727604 50.73552678 40.08966095 49.71875 30.2890625 C48.74377206 24.7954368 46.78377592 21.11279992 43 17 C33.61501309 12.94662968 33.61501309 12.94662968 17 14 Z " fill="#2A2928" transform="translate(878,755)"/>
<path d="M0 0 C4.01680835 3.44052107 7.1509948 7.54282815 8.82421875 12.5625 C8.82421875 15.2025 8.82421875 17.8425 8.82421875 20.5625 C3.21421875 20.5625 -2.39578125 20.5625 -8.17578125 20.5625 C-9.16578125 18.2525 -10.15578125 15.9425 -11.17578125 13.5625 C-13.54372718 11.02356454 -14.77386832 10.61485647 -18.234375 10.1640625 C-19.34941406 10.17179688 -20.46445313 10.17953125 -21.61328125 10.1875 C-23.28197266 10.17589844 -23.28197266 10.17589844 -24.984375 10.1640625 C-28.44106537 10.59561993 -30.35610991 11.57028361 -33.17578125 13.5625 C-32.84578125 15.8725 -32.51578125 18.1825 -32.17578125 20.5625 C-26.09054957 23.23880582 -19.93633289 25.25918577 -13.55078125 27.0625 C-3.42702665 29.97807978 4.36073455 32.95108483 9.9375 42.4609375 C12.72788662 49.07427672 12.30700639 56.54876835 9.95703125 63.20703125 C6.74312635 69.88973696 2.28034405 73.91120163 -4.49560547 76.76416016 C-9.65316925 78.30043576 -14.83594736 78.13598395 -20.17578125 78.0625 C-21.29984375 78.07796875 -22.42390625 78.0934375 -23.58203125 78.109375 C-32.04976101 78.06980617 -39.7956493 76.6771646 -45.98828125 70.4375 C-50.54586206 65.50895331 -52.90504079 59.64894121 -53.48828125 53 C-53.17578125 50.5625 -53.17578125 50.5625 -52.17578125 49.5625 C-49.64981866 49.32596477 -47.14470918 49.14076308 -44.61328125 49 C-43.5469043 48.93522461 -43.5469043 48.93522461 -42.45898438 48.86914062 C-40.69816213 48.76278223 -38.93699805 48.66211154 -37.17578125 48.5625 C-36.9334375 49.16578125 -36.69109375 49.7690625 -36.44140625 50.390625 C-33.82863399 56.68205171 -33.82863399 56.68205171 -29.17578125 61.5625 C-23.20099987 63.55409379 -16.46994473 63.35359086 -10.55078125 61.3125 C-8.01791512 59.44617759 -6.9568685 58.60006152 -6.17578125 55.5625 C-6.09354759 52.47254903 -6.09354759 52.47254903 -7.17578125 49.5625 C-10.43529191 47.25348676 -13.58455549 45.97559084 -17.4140625 44.9140625 C-18.89229492 44.48867188 -18.89229492 44.48867188 -20.40039062 44.0546875 C-22.44609296 43.48018286 -24.49296184 42.90981477 -26.54101562 42.34375 C-36.46185201 39.47414 -43.74460662 35.72415196 -49.28515625 26.76953125 C-51.43084326 21.45236826 -51.0167518 14.56323581 -49.48828125 9.109375 C-46.75668898 3.14539854 -42.51396406 -0.26840859 -36.67578125 -3.1875 C-25.18046654 -7.29296954 -10.32477492 -7.03676344 0 0 Z " fill="#2A2928" transform="translate(1701.17578125,758.4375)"/>
<path d="M0 0 C19.8 0 39.6 0 60 0 C60 4.62 60 9.24 60 14 C45.81 14 31.62 14 17 14 C17 19.61 17 25.22 17 31 C30.2 31 43.4 31 57 31 C57 35.62 57 40.24 57 45 C43.8 45 30.6 45 17 45 C17 51.93 17 58.86 17 66 C31.52 66 46.04 66 61 66 C61 70.62 61 75.24 61 80 C40.87 80 20.74 80 0 80 C0 53.6 0 27.2 0 0 Z " fill="#2A2928" transform="translate(1499,755)"/>
<path d="M0 0 C19.8 0 39.6 0 60 0 C60 4.62 60 9.24 60 14 C45.81 14 31.62 14 17 14 C17 19.61 17 25.22 17 31 C30.2 31 43.4 31 57 31 C57 35.62 57 40.24 57 45 C43.8 45 30.6 45 17 45 C17 51.93 17 58.86 17 66 C31.52 66 46.04 66 61 66 C61 70.62 61 75.24 61 80 C40.87 80 20.74 80 0 80 C0 53.6 0 27.2 0 0 Z " fill="#2A2928" transform="translate(805,755)"/>
<path d="M0 0 C19.47 0 38.94 0 59 0 C59 4.62 59 9.24 59 14 C45.14 14 31.28 14 17 14 C17 19.61 17 25.22 17 31 C29.87 31 42.74 31 56 31 C56 35.62 56 40.24 56 45 C43.13 45 30.26 45 17 45 C17 51.93 17 58.86 17 66 C31.52 66 46.04 66 61 66 C61 70.62 61 75.24 61 80 C40.87 80 20.74 80 0 80 C0 53.6 0 27.2 0 0 Z " fill="#2A2928" transform="translate(1055,755)"/>
<path d="M0 0 C0.74886475 0.00523682 1.49772949 0.01047363 2.26928711 0.01586914 C3.07817383 0.0190918 3.88706055 0.02231445 4.72045898 0.02563477 C5.5705957 0.03401367 6.42073242 0.04239258 7.29663086 0.05102539 C8.15063477 0.05553711 9.00463867 0.06004883 9.88452148 0.06469727 C12.00108749 0.07652166 14.11761771 0.0944577 16.23413086 0.11352539 C19.42818005 6.24070145 22.03429625 12.45922853 24.49975586 18.91040039 C24.89684753 19.93925354 25.29393921 20.96810669 25.70306396 22.02813721 C26.96715085 25.30517703 28.22591389 28.58422788 29.48413086 31.86352539 C31.13333859 36.15069152 32.78513888 40.43685474 34.43725586 44.72290039 C34.83835571 45.76627563 35.23945557 46.80965088 35.65270996 47.88464355 C37.60635722 52.95398893 39.58519596 58.01049827 41.62670898 63.04516602 C42.0009198 63.96863831 42.37513062 64.8921106 42.76068115 65.84356689 C43.46422395 67.57222559 44.17234538 69.29903043 44.88580322 71.02362061 C45.19636658 71.78579895 45.50692993 72.54797729 45.8269043 73.33325195 C46.23655426 74.32545746 46.23655426 74.32545746 46.65447998 75.33770752 C47.23413086 77.11352539 47.23413086 77.11352539 47.23413086 80.11352539 C41.29413086 80.11352539 35.35413086 80.11352539 29.23413086 80.11352539 C24.48413086 68.73852539 24.48413086 68.73852539 22.23413086 63.11352539 C7.38413086 62.61852539 7.38413086 62.61852539 -7.76586914 62.11352539 C-8.75586914 65.41352539 -9.74586914 68.71352539 -10.76586914 72.11352539 C-11.75586914 74.75352539 -12.74586914 77.39352539 -13.76586914 80.11352539 C-19.70586914 80.11352539 -25.64586914 80.11352539 -31.76586914 80.11352539 C-31.08855431 76.0496364 -30.57993077 73.2059726 -29.15869141 69.53051758 C-28.66618393 68.24439072 -28.66618393 68.24439072 -28.16372681 66.93228149 C-27.80684784 66.01756073 -27.44996887 65.10283997 -27.08227539 64.16040039 C-26.52496231 62.71182144 -26.52496231 62.71182144 -25.95639038 61.23397827 C-24.75244534 58.10838124 -23.5405663 54.98593016 -22.32836914 51.86352539 C-21.50373228 49.72813879 -20.67959559 47.59255896 -19.85595703 45.45678711 C-18.23514869 41.25572607 -16.61148568 37.05578625 -14.9855957 32.85668945 C-13.10509799 27.99668627 -11.23860395 23.13153947 -9.38305664 18.26196289 C-8.91826904 17.04412109 -8.45348145 15.8262793 -7.97460938 14.5715332 C-7.14718643 12.40215005 -6.32110664 10.23225397 -5.49658203 8.06176758 C-4.96278931 6.66812988 -4.96278931 6.66812988 -4.41821289 5.24633789 C-4.11906982 4.46145996 -3.81992676 3.67658203 -3.51171875 2.86791992 C-2.35689025 0.15152136 -2.35689025 0.15152136 0 0 Z M6.23413086 22.11352539 C4.73157293 26.25843621 3.23251241 30.40460317 1.73413086 34.55102539 C1.30487305 35.7350293 0.87561523 36.9190332 0.43334961 38.13891602 C0.02729492 39.26362305 -0.37875977 40.38833008 -0.79711914 41.54711914 C-1.17416992 42.58924561 -1.5512207 43.63137207 -1.93969727 44.70507812 C-2.81994771 46.84680654 -2.81994771 46.84680654 -2.76586914 48.11352539 C3.83413086 48.11352539 10.43413086 48.11352539 17.23413086 48.11352539 C16.1109875 44.71706781 14.98569014 41.32134988 13.85913086 37.92602539 C13.54202148 36.96631836 13.22491211 36.00661133 12.89819336 35.01782227 C12.58881836 34.08647461 12.27944336 33.15512695 11.96069336 32.19555664 C11.67790527 31.34195557 11.39511719 30.48835449 11.10375977 29.60888672 C10.2212869 27.07667022 9.24866611 24.595444 8.23413086 22.11352539 C7.57413086 22.11352539 6.91413086 22.11352539 6.23413086 22.11352539 Z " fill="#2A2928" transform="translate(512.765869140625,754.886474609375)"/>
<path d="M0 0 C5.61 0 11.22 0 17 0 C17.01981934 1.49781006 17.03963867 2.99562012 17.06005859 4.53881836 C17.13643985 10.12443136 17.22510638 15.70979487 17.31738281 21.29516602 C17.35553858 23.70722508 17.39041424 26.11933846 17.421875 28.53149414 C17.46781736 32.00947405 17.52576329 35.48708442 17.5859375 38.96484375 C17.59748871 40.03395493 17.60903992 41.1030661 17.62094116 42.20457458 C17.69514178 53.33587697 17.69514178 53.33587697 22.4375 63 C27.20658432 66.72221216 32.18259983 66.51193121 38 66 C42.30172941 64.26100301 43.92980446 62.07927504 46 58 C46.46608452 55.15901545 46.46608452 55.15901545 46.43237305 52.1081543 C46.45216721 50.94732834 46.47196136 49.78650238 46.49235535 48.59049988 C46.49874527 47.34762711 46.50513519 46.10475433 46.51171875 44.82421875 C46.52966995 43.54392288 46.54762115 42.26362701 46.56611633 40.9445343 C46.61350384 37.55310147 46.64338534 34.16173464 46.66955566 30.77008057 C46.69941845 27.3042701 46.74592897 23.83868681 46.79101562 20.37304688 C46.87598946 13.58211568 46.94278217 6.79121949 47 0 C52.61 0 58.22 0 64 0 C64.04533235 7.55446163 64.08196285 15.10887197 64.10362434 22.66343689 C64.11402508 26.17199796 64.12811572 29.68046047 64.15087891 33.18896484 C64.17693161 37.23015241 64.18650343 41.27123777 64.1953125 45.3125 C64.20563507 46.5617627 64.21595764 47.81102539 64.22659302 49.09814453 C64.22771747 57.88628064 63.9569208 66.91788305 58 74 C49.68085986 80.69148229 43.2531521 81.23020374 32.8125 81.3125 C31.00168945 81.35600586 31.00168945 81.35600586 29.15429688 81.40039062 C20.58364363 81.46130834 15.10787521 80.4688724 8.5390625 74.921875 C-3.62074275 61.12421843 -0.13547033 38.9308145 -0.0625 21.5625 C-0.05747197 19.4628917 -0.05291138 17.36328223 -0.04882812 15.26367188 C-0.03793267 10.17575168 -0.02074085 5.08788919 0 0 Z " fill="#2A2928" transform="translate(1237,755)"/>
<path d="M0 0 C5.53327473 4.01254029 10.29145477 8.78763388 12.00390625 15.5859375 C12.296875 17.5234375 12.296875 17.5234375 12.484375 20.5234375 C10.59052063 21.03088173 8.69418834 21.52908324 6.796875 22.0234375 C5.74113281 22.301875 4.68539062 22.5803125 3.59765625 22.8671875 C0.77294828 23.462609 -1.64399208 23.65130242 -4.515625 23.5234375 C-4.80953125 22.72679687 -4.80953125 22.72679687 -5.109375 21.9140625 C-7.25566523 16.84437696 -9.31229122 14.28003491 -14.4375 12.14453125 C-19.09624906 10.75216076 -22.55615799 11.22567188 -27.140625 12.6484375 C-31.86118114 15.27096869 -34.49318095 18.3251828 -36.765625 23.2109375 C-39.19833378 33.95540129 -39.71143464 45.4900916 -34.7578125 55.578125 C-32.204114 59.57731321 -29.04703296 62.01296818 -24.515625 63.5234375 C-18.89686776 63.8918806 -15.35851121 63.71533978 -10.515625 60.5234375 C-6.66996133 56.67777383 -5.22950662 52.57938829 -3.515625 47.5234375 C-1.61870357 47.97724645 0.27687095 48.43668742 2.171875 48.8984375 C3.75548828 49.28128906 3.75548828 49.28128906 5.37109375 49.671875 C8.18844266 50.44249239 10.80105825 51.37842293 13.484375 52.5234375 C10.80653171 61.92854564 6.9183088 70.04622762 -1.515625 75.5234375 C-7.50276574 78.74728251 -12.65815884 79.01117978 -19.390625 78.9609375 C-20.33292969 78.98091797 -21.27523437 79.00089844 -22.24609375 79.02148438 C-31.87252059 79.0148271 -38.74477684 75.91236789 -45.73046875 69.37109375 C-55.25627253 59.51178262 -56.85737336 47.81927057 -56.7265625 34.4765625 C-56.08492568 22.45181322 -52.60130978 12.07357531 -43.765625 3.6484375 C-31.89158033 -6.01489252 -13.27782367 -7.7935052 0 0 Z " fill="#2A2928" transform="translate(700.515625,757.4765625)"/>
<path d="M0 0 C4.74084097 4.99498914 8 9.98844781 8 17 C6.10614563 17.50744423 4.20981334 18.00564574 2.3125 18.5 C1.25675781 18.7784375 0.20101562 19.056875 -0.88671875 19.34375 C-3.71142672 19.9391715 -6.12836708 20.12786492 -9 20 C-9.29390625 19.20335937 -9.29390625 19.20335937 -9.59375 18.390625 C-11.72347103 13.36007704 -13.76459717 10.74854208 -18.8515625 8.62109375 C-23.59550304 7.24966367 -27.47622287 7.46219631 -32.1875 9.125 C-37.02600203 12.35066802 -40.36034963 16.39786125 -42 22 C-43.92966916 32.03427962 -43.91184328 43.56269552 -39.375 52.9375 C-35.99129859 57.30069392 -32.38245144 59.44259227 -26.9140625 60.34375 C-22.21985065 60.55957583 -18.88547521 59.56088139 -15 57 C-11.15433633 53.15433633 -9.71388162 49.05595079 -8 44 C-6.08191891 44.45237761 -4.16557967 44.91214463 -2.25 45.375 C-0.64898438 45.75785156 -0.64898438 45.75785156 0.984375 46.1484375 C3.55852722 46.87533541 5.67600186 47.7026224 8 49 C7.67609064 56.44991519 4.29375499 62.39721995 -0.70703125 67.8671875 C-7.96018842 74.44905924 -14.78730097 75.52472472 -24.3125 75.5 C-25.29412109 75.52835938 -26.27574219 75.55671875 -27.28710938 75.5859375 C-35.75472054 75.60835341 -41.78408435 73.11835721 -48.55078125 68.11328125 C-58.60602477 57.83508333 -61.41733704 46.28138044 -61.36572266 32.29931641 C-61.11419004 20.38036248 -57.56966897 10.04344318 -49.375 1.2578125 C-35.72863398 -11.44088921 -14.40087059 -11.12461141 0 0 Z " fill="#2A2928" transform="translate(626,761)"/>
<path d="M0 0 C6.27 0 12.54 0 19 0 C20.92099271 5.61916049 22.84170121 11.23841659 24.76171875 16.85791016 C25.41325014 18.76454081 26.06493919 20.6711176 26.71679688 22.57763672 C28.55116563 27.94288399 30.38170391 33.30940929 32.20776367 38.67749023 C32.91587798 40.75338898 33.62967343 42.82721263 34.34570312 44.90039062 C34.89387695 46.50430664 34.89387695 46.50430664 35.453125 48.140625 C35.91187012 49.4714209 35.91187012 49.4714209 36.37988281 50.82910156 C37 53 37 53 37 56 C37.66 56 38.32 56 39 56 C39.2582959 54.74517822 39.5165918 53.49035645 39.78271484 52.19750977 C41.02127985 46.63509003 42.72250583 41.25801948 44.4765625 35.83984375 C44.80667328 34.80936417 45.13678406 33.77888458 45.47689819 32.71717834 C46.52252414 29.45607033 47.5736684 26.19677251 48.625 22.9375 C49.33890833 20.71431042 50.05245367 18.49100424 50.765625 16.26757812 C52.50622181 10.84369468 54.25176679 5.42142665 56 0 C62.27 0 68.54 0 75 0 C69.05387294 17.28321452 63.08390893 34.55819893 57.10079956 51.8286438 C56.32405557 54.0713777 55.54779156 56.3142779 54.77200317 58.55734253 C53.67093166 61.7405085 52.56810508 64.9230612 51.46484375 68.10546875 C51.12983856 69.07506531 50.79483337 70.04466187 50.44967651 71.04364014 C50.14135895 71.93182434 49.83304138 72.82000854 49.51538086 73.73510742 C49.24576035 74.51367599 48.97613983 75.29224457 48.698349 76.09440613 C48 78 48 78 47 80 C40.73 80 34.46 80 28 80 C27.54262451 78.70827881 27.08524902 77.41655762 26.61401367 76.08569336 C25.24658229 72.22384804 23.87905054 68.36203827 22.51147461 64.50024414 C20.95867194 60.11539753 19.406138 55.73045588 17.85375977 51.34545898 C14.38306775 41.54305322 10.91095008 31.74119231 7.421875 21.9453125 C6.90469483 20.49227206 6.38752322 19.03922858 5.87036133 17.58618164 C4.9317894 14.94934281 3.99120705 12.31323241 3.04956055 9.67749023 C2.6400415 8.52708252 2.23052246 7.3766748 1.80859375 6.19140625 C1.45595459 5.20342041 1.10331543 4.21543457 0.73999023 3.19750977 C0 1 0 1 0 0 Z " fill="#2A2928" transform="translate(1418,755)"/>
<path d="M0 0 C3.20675471 -0.2631068 6.41073666 -0.4216804 9.625 -0.5625 C10.52863281 -0.63791016 11.43226562 -0.71332031 12.36328125 -0.79101562 C15.14874765 -0.88250905 17.32623636 -0.80107249 20 0 C22.75303689 2.60582171 24.29245844 5.64592285 26 9 C26.96910021 10.68119518 27.94306698 12.35959446 28.921875 14.03515625 C30.35974379 16.5801444 31.78761629 19.1302194 33.20703125 21.68554688 C33.66980469 22.50216797 34.13257813 23.31878906 34.609375 24.16015625 C35.02155273 24.89886963 35.43373047 25.63758301 35.85839844 26.39868164 C36.23512695 26.9271167 36.61185547 27.45555176 37 28 C37.66 28 38.32 28 39 28 C39.44915771 27.18732666 39.89831543 26.37465332 40.36108398 25.53735352 C42.02395346 22.53057709 43.68833471 19.52464822 45.35375977 16.51928711 C46.07507426 15.21689115 46.79577955 13.91415759 47.51586914 12.61108398 C48.54935342 10.74113893 49.58500263 8.87240788 50.62109375 7.00390625 C51.2442749 5.87799072 51.86745605 4.7520752 52.50952148 3.59204102 C54 1 54 1 55 0 C56.4887186 -0.08669432 57.981445 -0.10703494 59.47265625 -0.09765625 C60.37177734 -0.09443359 61.27089844 -0.09121094 62.19726562 -0.08789062 C63.61555664 -0.07532227 63.61555664 -0.07532227 65.0625 -0.0625 C66.4865918 -0.05573242 66.4865918 -0.05573242 67.93945312 -0.04882812 C70.29303065 -0.0370011 72.64648477 -0.02052025 75 0 C71.02433345 7.51442675 66.74237033 14.73906404 62.125 21.875 C60.36160676 24.61321287 58.60278527 27.35255537 56.87207031 30.11157227 C55.58019345 32.10481629 54.21994592 34.05481032 52.80761719 35.96459961 C46.27506103 45.26176964 45.8538906 52.86241217 46 63.8125 C45.99188612 65.39129868 45.9801888 66.97008317 45.96484375 68.54882812 C45.9287887 72.36866054 45.96577611 76.17761968 46 80 C40.39 80 34.78 80 29 80 C29.10183594 77.8240625 29.20367188 75.648125 29.30859375 73.40625 C29.90247008 53.60400254 27.418954 40.94438073 15.07177734 24.79785156 C11.58279321 20.08611951 8.59955292 15.07227005 5.5625 10.0625 C4.48056261 8.32416033 3.39854074 6.58587323 2.31640625 4.84765625 C0 1.12520179 0 1.12520179 0 0 Z " fill="#2A2928" transform="translate(1814,755)"/>
<path d="M0 0 C21.12 0 42.24 0 64 0 C64 4.62 64 9.24 64 14 C56.41 14 48.82 14 41 14 C41 35.78 41 57.56 41 80 C35.39 80 29.78 80 24 80 C24 58.22 24 36.44 24 14 C16.08 14 8.16 14 0 14 C0 9.38 0 4.76 0 0 Z " fill="#2A2928" transform="translate(982,755)"/>
<path d="M0 0 C20.79 0 41.58 0 63 0 C63 4.62 63 9.24 63 14 C55.41 14 47.82 14 40 14 C40 35.78 40 57.56 40 80 C34.39 80 28.78 80 23 80 C23 58.22 23 36.44 23 14 C15.41 14 7.82 14 0 14 C0 9.38 0 4.76 0 0 Z " fill="#2A2928" transform="translate(1750,755)"/>
<path d="M0 0 C5.61 0 11.22 0 17 0 C17 26.4 17 52.8 17 80 C11.39 80 5.78 80 0 80 C0 53.6 0 27.2 0 0 Z " fill="#2A2928" transform="translate(1724,755)"/>
<path d="M0 0 C5.61 0 11.22 0 17 0 C17 26.4 17 52.8 17 80 C11.39 80 5.78 80 0 80 C0 53.6 0 27.2 0 0 Z " fill="#2A2928" transform="translate(1395,755)"/>
<path d="M0 0 C5.61 0 11.22 0 17 0 C17 26.4 17 52.8 17 80 C11.39 80 5.78 80 0 80 C0 53.6 0 27.2 0 0 Z " fill="#2A2928" transform="translate(957,755)"/>
</svg>
